<?xml version="1.0" encoding="UTF-8"?>
<svg width="60px" height="60px" viewBox="0 0 60 60" version="1.1" xmlns="http://www.w3.org/2000/svg" xmlns:xlink="http://www.w3.org/1999/xlink">
    <title>icon-足球</title>
    <g id="页面-1" stroke="none" stroke-width="1" fill="none" fill-rule="evenodd">
        <g id="1首页_未登录" transform="translate(-531, -689)">
            <g id="编组-5备份-3" transform="translate(507, 665)">
                <g id="icon-足球" transform="translate(24, 24)">
                    <rect id="矩形" fill="#F7F7F7" opacity="0" x="0" y="0" width="60" height="60"></rect>
                    <g id="编组" transform="translate(11.0526, 11.0526)" fill="#155C8F" fill-rule="nonzero">
                        <path d="M9.99705572,26.2271917 L5.32366616,26.2271917 C3.32892672,26.2271917 1.69514013,24.6192004 1.69514013,22.6559552 C1.69514013,20.69271 3.32892672,19.0847187 5.32366616,19.0847187 L20.9016314,19.0847187 C21.2055917,19.0847187 21.4905544,18.9164405 21.6615321,18.6546745 L32.0911698,1.24723381 C32.3381375,0.835887196 32.2051549,0.312355145 31.7872095,0.0692866923 C31.3692641,-0.17378176 30.8373335,-0.0428987472 30.5903658,0.368447864 L20.4266934,17.364542 L5.32366616,17.364542 C2.36005327,17.364542 -0.0526315789,19.7391338 -0.0526315789,22.6559552 C-0.0526315789,25.5727766 2.36005327,27.9473684 5.32366616,27.9473684 L9.99705572,27.9473684 C10.4719937,27.9473684 10.8709416,27.5547194 10.8709416,27.0872801 C10.8709416,26.6198407 10.4719937,26.2271917 9.99705572,26.2271917 Z M37.5054625,2.01383431 C37.0875171,1.77076586 36.5555866,1.92034644 36.3086189,2.33169306 L26.4109117,19.1221138 C26.163944,19.5334605 26.3159241,20.0569925 26.7338695,20.300061 C26.8668522,20.3748513 27.0188323,20.4122464 27.1708125,20.4122464 C27.4747728,20.4122464 27.7597355,20.2626658 27.9307132,19.9822022 L37.8284204,3.19178143 C38.0753881,2.78043481 37.923408,2.25690276 37.5054625,2.01383431 L37.5054625,2.01383431 Z" id="形状"></path>
                        <path d="M22.9473684,21.9473684 C17.2547688,21.9473684 12.9473684,24.1405799 12.9473684,27.0387522 L12.9473684,31.8559846 C12.9473684,34.7541569 17.2547688,36.9473684 22.9473684,36.9473684 C28.639968,36.9473684 32.9473684,34.7541569 32.9473684,31.8559846 L32.9473684,27.0387522 C32.9473684,24.1405799 28.639968,21.9473684 22.9473684,21.9473684 Z M22.9473684,23.748935 C27.6722261,23.748935 31.2016379,25.4917548 31.2016379,27.0387522 C31.2016379,28.5857496 27.6722261,30.3285695 22.9473684,30.3285695 C18.2225107,30.3285695 14.693099,28.5857496 14.693099,27.0387522 C14.693099,25.4721726 18.2225107,23.748935 22.9473684,23.748935 Z M22.9473684,35.1262196 C18.2225107,35.1262196 14.693099,33.3833998 14.693099,31.8364024 L14.693099,29.9565068 C16.4578049,31.2685172 19.436932,32.1105538 22.9473684,32.1105538 C26.4578049,32.1105538 29.436932,31.2880995 31.2016379,29.9565068 L31.2016379,31.8364024 C31.2016379,33.402982 27.6722261,35.1262196 22.9473684,35.1262196 Z" id="形状"></path>
                    </g>
                </g>
            </g>
        </g>
    </g>
</svg>