<?xml version="1.0" encoding="UTF-8"?>
<svg width="60px" height="60px" viewBox="0 0 60 60" version="1.1" xmlns="http://www.w3.org/2000/svg" xmlns:xlink="http://www.w3.org/1999/xlink">
    <title>icon-足球</title>
    <g id="页面-1" stroke="none" stroke-width="1" fill="none" fill-rule="evenodd">
        <g id="1首页_未登录" transform="translate(-285, -689)">
            <g id="编组-5备份" transform="translate(261, 665)">
                <g id="icon-足球" transform="translate(24, 24)">
                    <rect id="矩形" fill="#F7F7F7" opacity="0" x="0" y="0" width="60" height="60"></rect>
                    <g id="编组" transform="translate(9.4737, 9.4737)" fill="#9C6A37" fill-rule="nonzero">
                        <path d="M40.44942,27.7213353 L40.4940408,27.5964034 C40.699296,26.9985148 40.8688547,26.3827787 41.011641,25.8116613 L41.011641,25.695653 C41.1544272,25.0709933 41.2615169,24.4463335 41.3507584,23.8216738 L41.3507584,23.7324367 C42.1181658,17.9009706 40.346768,12.0205122 36.486011,7.58307488 C32.625254,3.1456376 27.0461857,0.577692476 21.1643495,0.530788856 C21.1050047,0.524824767 21.0452114,0.524824767 20.9858666,0.530788856 C19.1957576,0.534435792 17.413762,0.771423766 15.6849264,1.23576203 C10.1057231,2.74709834 5.42241987,6.54075102 2.78587648,11.6844802 C0.149333099,16.8282093 -0.196029058,22.8451643 1.83465819,28.256758 C1.94769731,28.5601641 2.06966057,28.8576212 2.20054798,29.149129 C2.28978938,29.3632981 2.39687908,29.5774671 2.49504466,29.7916362 L2.62890679,30.0682713 C2.74492062,30.3181352 2.87878274,30.5590753 3.00372074,30.8000155 L3.08403802,30.9427949 C3.23277371,31.2105062 3.38448412,31.4722684 3.53916926,31.7280815 C4.38106411,33.1041228 5.38474057,34.3743863 6.5287568,35.5117348 L6.71616378,35.6991327 L7.24268816,36.1899368 L7.5550331,36.4665718 L8.03693676,36.8770625 L8.45637144,37.2072398 L8.88473025,37.5374171 L9.43802706,38.0103738 L9.78606859,38.2513139 C10.0984136,38.4565593 10.4196827,38.6528809 10.7498759,38.8402788 C11.0800692,39.0276768 11.5173521,39.268617 11.9100143,39.4560149 L12.4990077,39.7237262 L13.0790769,39.9825138 L13.8287049,40.2769963 L14.2749119,40.4465468 L15.0780847,40.7053344 L15.5153677,40.8391901 L16.291768,41.0355117 L16.7915199,41.1515199 L17.487603,41.2853756 L18.1033688,41.3835364 L18.683438,41.4549261 L19.4509142,41.5263158 L21.1108046,41.5263158 C24.1196745,41.5051469 27.087094,40.8227344 29.8029188,39.5274046 L29.9367809,39.4649386 C30.2312776,39.3221593 30.5257743,39.1615325 30.8291951,39.0009056 L31.1504642,38.8313551 L31.8197749,38.4208645 L32.3106027,38.1174583 L32.7925063,37.7783573 C32.9977616,37.6355779 33.211941,37.4838748 33.4171962,37.3321718 L33.7473895,37.0644604 C33.9883413,36.8681388 34.2292932,36.6807409 34.470245,36.4754955 L34.6933485,36.2702502 C34.9521487,36.0382337 35.2109488,35.8062172 35.4608248,35.5563533 L35.6303834,35.3778791 C35.8891836,35.1190915 36.1390595,34.8513802 36.3889355,34.5747451 L36.5674183,34.3605761 C36.799446,34.0928648 37.0314737,33.8162298 37.2545773,33.530671 L37.5401498,33.1380277 C37.7097085,32.9060112 37.8881913,32.6739948 38.0488259,32.4241309 C38.3046513,32.0433859 38.5485778,31.6507426 38.7806055,31.2462011 C39.1107988,30.6750836 39.4052954,30.0950424 39.6730197,29.4614589 L39.6730197,29.3722218 C40.0121371,28.9081889 40.2441648,28.319224 40.44942,27.7213353 L40.44942,27.7213353 Z M39.4588403,24.3749438 C39.4052954,24.67835 39.3606747,24.9906799 39.2892816,25.2673149 C39.2178885,25.5439499 39.1107988,25.9098221 39.0215574,26.2310756 C38.932316,26.5523292 38.8787711,26.7575746 38.7984538,27.0163622 C38.7181365,27.2751498 38.5128812,27.7659539 38.3611708,28.1407498 C38.2808536,28.3370714 38.2094604,28.5423167 38.1291431,28.7297147 C37.870343,29.2919084 37.5936946,29.8451785 37.236729,30.3984485 C36.8797633,30.9517186 36.6388115,31.3622093 36.3443148,31.8173185 L36.0855147,32.1831907 C35.7731697,32.6026051 35.4519006,33.0041721 35.1127832,33.3878916 L34.9699969,33.5485184 C34.720121,33.8340772 34.4434725,34.0928648 34.1846725,34.3516524 C35.0770866,27.6053271 32.0250301,21.1891791 29.7226015,16.3703753 C29.0361055,15.0106458 28.419536,13.6167298 27.8753041,12.1940787 C34.0240379,14.068058 38.6645917,18.3782102 39.5927024,23.5807336 C39.5570059,23.8484449 39.503461,24.1072325 39.4588403,24.3749438 L39.4588403,24.3749438 Z M30.6060915,37.1180027 C30.237227,37.3381209 29.8594383,37.5433662 29.4727255,37.7337387 L29.187153,37.8765181 C28.7230976,38.0996108 28.2501181,38.2959325 27.7682144,38.4833304 L27.3309315,38.6439572 C26.9501681,38.7807875 26.5634553,38.9057194 26.1707931,39.0187531 L25.7692067,39.1347613 C25.2754042,39.2656424 24.7756522,39.3727269 24.2699508,39.4560149 L23.8237437,39.5274046 C23.4310815,39.586896 23.0354445,39.6344891 22.6368329,39.6701839 L21.8158118,39.6701839 C19.7811075,25.7402716 19.4419901,16.8254846 19.7364868,11.2035469 C20.1469973,11.2392417 20.5932044,11.2392417 21.0394115,11.2392417 C22.655165,11.2415201 24.266611,11.4059455 25.849524,11.7300458 C26.4244323,13.6160964 27.1805607,15.4420731 28.1073318,17.182433 C30.5614709,22.2957192 33.9258723,29.2919084 32.0071819,36.2167079 C31.6859127,36.4487244 31.3646436,36.6718171 31.0344504,36.8770625 L30.6060915,37.1180027 Z M18.5585,39.6166417 C18.0319756,39.545252 17.5054513,39.4560149 16.9789269,39.3400067 L16.7112027,39.268617 C16.2649955,39.1615324 15.8187885,39.0366005 15.3815055,38.9027448 L14.9799192,38.7778129 C14.4861166,38.611237 13.9982635,38.4208645 13.5163599,38.2066954 L13.1772425,38.0103738 C12.6685664,37.7783573 12.1598903,37.5284934 11.6690625,37.2429347 C11.1782347,36.9573759 10.6517103,36.6182749 10.1698067,36.2791739 L10.0091721,36.2256316 C9.54511675,35.8865306 9.09890966,35.5295822 8.67055085,35.1547864 L8.54561285,35.0030833 L8.49206799,34.949541 C6.6358465,28.0068941 9.55404089,21.563975 11.7047591,16.7897898 C12.3846248,15.3927752 12.9806242,13.9564862 13.4895875,12.4885612 C14.938918,11.9963416 16.4336415,11.6495825 17.9516584,11.4534107 C17.67501,17.2716701 18.0676722,26.1775334 20.0399076,39.7504973 C19.6650936,39.7504973 19.2902797,39.7504973 18.9154657,39.6701839 L18.5585,39.6166417 Z M5.07412169,30.8714052 C4.77070088,30.3806012 4.50297662,29.8719496 4.24417649,29.3632981 L4.16385922,29.1937476 C3.93183153,28.7059181 3.71765212,28.2091649 3.521321,27.7034879 L3.42315543,27.4179292 C3.2892933,27.0431333 3.17327947,26.6683375 3.06618977,26.2935416 C3.01264491,26.09722 2.95017594,25.9098221 2.90555521,25.7135004 C2.80738964,25.3297809 2.72707236,24.9371376 2.65567921,24.5534181 C2.58428606,24.1696985 2.55751364,23.9823006 2.51289296,23.661047 L2.51289296,23.5093439 C3.3071416,19.1902679 6.6358465,15.5315466 11.2496278,13.3630849 C10.9194346,14.1840663 10.5178482,15.085361 10.0805653,16.0401981 C8.09940578,20.3949689 5.52925292,26.1150674 6.21641182,32.5044443 C5.80988894,31.9806105 5.43156411,31.4354916 5.08304581,30.8714052 L5.07412169,30.8714052 Z M21.4766944,2.31553101 C24.1060277,2.36578033 26.6946726,2.97412812 29.0711392,4.10027316 C27.1240796,5.40322176 25.8760061,7.52155985 25.6799652,9.85606655 C24.1483866,9.58257094 22.5952071,9.44816767 21.0394115,9.45449957 L19.8525006,9.45449957 C20.254087,4.80524629 21.1108046,2.92234335 21.4766944,2.31553101 L21.4766944,2.31553101 Z M39.6016266,18.6994638 C37.2099565,14.7194889 32.8014304,11.6586561 27.4558695,10.2754809 C27.3844763,7.35742753 29.8743119,5.66192252 30.8559675,5.10865244 C35.6753393,8.0845555 38.8901508,13.0803936 39.6016266,18.6994638 L39.6016266,18.6994638 Z M16.1936024,2.95803818 C17.26092,2.67610533 18.3508376,2.48799165 19.4509142,2.3958444 C18.6129636,4.72828483 18.1345172,7.17456232 18.0319757,9.65082119 C16.6092499,9.81288616 15.2030202,10.0965069 13.8287049,10.4985737 C14.0379217,8.35896317 13.0182847,6.28522531 11.196083,5.14434731 C12.7467905,4.17654576 14.4303418,3.44002764 16.1936024,2.95803818 L16.1936024,2.95803818 Z M4.81532156,11.6854272 C6.0238833,9.58907727 7.62702335,7.74661591 9.53619259,6.25981112 C10.3839861,6.5810647 12.454387,7.71437595 11.9992557,10.891217 C11.9992557,10.9715304 11.9992557,11.0518438 11.9546351,11.1321572 C8.02830558,12.5510397 4.68288909,15.2310094 2.44149981,18.7530061 C2.74852942,16.2612886 3.55596436,13.8573128 4.81532156,11.6854272 L4.81532156,11.6854272 Z" id="形状"></path>
                    </g>
                </g>
            </g>
        </g>
    </g>
</svg>