<?xml version="1.0" encoding="UTF-8"?>
<svg width="80px" height="80px" viewBox="0 0 80 80" version="1.1" xmlns="http://www.w3.org/2000/svg" xmlns:xlink="http://www.w3.org/1999/xlink">
    <title>编组备份 4</title>
    <g id="页面-1" stroke="none" stroke-width="1" fill="none" fill-rule="evenodd">
        <g id="1首页_未登录" transform="translate(-603, -3682)" fill-rule="nonzero">
            <g id="编组-33备份-3" transform="translate(30, 3590)">
                <g id="编组备份-4" transform="translate(573, 92)">
                    <path d="M0,40 C0,62.09139 17.90861,80 40,80 C62.09139,80 80,62.09139 80,40 C80,17.90861 62.09139,0 40,0 C17.90861,0 0,17.90861 0,40 Z" id="路径" fill="#C5CAD0"></path>
                    <g id="编组-18" transform="translate(15.378, 9.666)" fill="#FFFFFF">
                        <path d="M48.456,11.6 C42.0526949,11.5922858 36.8637142,6.40330506 36.856,0 L27.222,0 L27.222,40.156 C27.2164891,45.0138213 23.2798213,48.9504891 18.422,48.956 C13.5641787,48.9504891 9.62751086,45.0138213 9.622,40.156 C9.63080592,35.2995464 13.5655464,31.3648059 18.422,31.356 C19.278,31.356 19.222,31.338 20.222,31.388 L19.706,21.774 C19.2799304,21.7453189 18.8530334,21.7306444 18.426,21.73 C8.25417049,21.7410228 0.0110227985,29.9841705 0,40.156 C0.0121225662,50.3273732 8.25462676,58.5698774 18.426,58.582 C28.5973732,58.5698774 36.8398774,50.3273732 36.852,40.156 L36.852,17.756 C40.2972028,20.0191601 44.329949,21.2234216 48.452,21.22 L48.456,11.6 Z" id="路径"></path>
                    </g>
                </g>
            </g>
        </g>
    </g>
</svg>