<?xml version="1.0" encoding="UTF-8"?>
<svg width="80px" height="80px" viewBox="0 0 80 80" version="1.1" xmlns="http://www.w3.org/2000/svg" xmlns:xlink="http://www.w3.org/1999/xlink">
    <title>编组</title>
    <g id="页面-1" stroke="none" stroke-width="1" fill="none" fill-rule="evenodd">
        <g id="1首页_未登录" transform="translate(-273, -3682)" fill-rule="nonzero">
            <g id="编组-33备份-3" transform="translate(30, 3590)">
                <g id="编组" transform="translate(243, 92)">
                    <polygon id="路径" fill="#FFFFFF" points="13.3328275 16.6662455 66.6646945 16.6662455 66.6646945 66.6658323 13.3328275 66.6658323"></polygon>
                    <path d="M40.0679912,79.9981523 C23.8650481,80.0380295 9.26209189,70.2781101 3.05906627,55.3182338 C-3.14395936,40.3583575 0.259089395,23.1554226 11.7020717,11.7155172 C23.1450541,0.2756118 40.3879886,-3.16435983 55.3140191,3.07558859 C70.270087,9.27907589 80.0142019,23.8837103 79.9999845,40.0752828 C79.9999845,62.1181776 62.1539625,79.9580301 40.0679912,79.9981523 Z M48.8709954,22.2754299 L47.6310056,22.4354286 C46.8710119,22.5954273 46.1110182,22.8354253 45.3910241,23.115423 C42.5466174,24.3598207 40.4451934,26.8594572 39.7079942,29.8753671 C39.3079975,31.4353542 39.3079975,33.0753407 39.7079942,34.5953281 C38.1880067,34.5953281 36.6680193,34.3953298 35.2280312,33.9953331 C30.7372127,32.993161 26.5439748,30.9518687 22.9850555,28.0353823 C21.8921947,27.1759372 20.8993136,26.1964735 20.0250799,25.1154065 C19.6876541,24.782791 19.3798277,24.4214296 19.1050875,24.0354154 C18.6348421,24.8524281 18.2708746,25.726157 18.0220195,26.6353939 C17.2648765,29.8717021 18.0982719,33.275019 20.2650779,35.7953182 C20.7850736,36.4353128 21.585067,36.8353096 22.1050627,37.395305 C21.6490409,37.474955 21.1801026,37.4335781 20.745074,37.2753059 C20.0181914,37.1552511 19.3070796,36.953993 18.6250915,36.6753109 L17.5451004,36.2753142 C17.4216688,39.8013491 19.2313322,43.1139532 22.2650614,44.9152428 C23.2264005,45.6304803 24.356245,46.0851738 25.5450343,46.2352319 C24.9050396,46.7952273 22.0650631,46.5552293 21.0650713,46.4352303 C22.0629589,49.4584082 24.4171265,51.8410352 27.4280957,52.875177 C28.3880877,53.2351741 29.3880794,53.3951728 30.3880712,53.3951728 C29.5573049,54.0915469 28.6437343,54.6826807 27.6680937,55.1551582 C25.7870687,56.1817102 23.7639782,56.9231298 21.6650664,57.35514 C20.745074,57.5551384 19.7850819,57.5151387 18.7450905,57.6751374 C17.6773043,57.7550838 16.6039166,57.7148317 15.5451169,57.5551384 L16.4251097,58.0751341 C17.3451021,58.6351295 18.2650945,59.1151255 19.2650862,59.5151221 C21.1850703,60.3151155 23.1450542,60.9551103 25.1481145,61.4351063 C29.8774273,62.4374711 34.7797262,62.2727234 39.4310734,60.9551103 C49.9140637,57.6751374 56.5570857,49.9952009 59.0770648,38.6752944 C59.4770615,36.5553119 59.6370602,34.3553301 59.5570609,32.1953479 L61.1570476,30.8753588 C62.4867561,29.7528849 63.6337894,28.430423 64.5570195,26.9553913 C62.7503002,27.7537206 60.8350863,28.2794453 58.8739896,28.5153784 C59.2739863,28.31538 59.6339834,28.0353823 59.9939804,27.715385 C61.5043387,26.4854 62.6290415,24.8469441 63.2339536,22.995424 L61.9939638,23.6754183 C60.3704755,24.5388985 58.6121748,25.1204903 56.7940068,25.3954041 C54.7585152,23.2346293 51.8753961,22.078906 48.910995,22.2354302 L48.910995,22.2754299 L48.8709954,22.2754299 L48.8709954,22.2754299 Z" id="形状" fill="#C5CAD0"></path>
                </g>
            </g>
        </g>
    </g>
</svg>