<?xml version="1.0" encoding="UTF-8"?>
<svg width="80px" height="80px" viewBox="0 0 80 80" version="1.1" xmlns="http://www.w3.org/2000/svg" xmlns:xlink="http://www.w3.org/1999/xlink">
    <title>编组备份 3</title>
    <g id="页面-1" stroke="none" stroke-width="1" fill="none" fill-rule="evenodd">
        <g id="1首页_未登录" transform="translate(-383, -3682)" fill-rule="nonzero">
            <g id="编组-33备份-3" transform="translate(30, 3590)">
                <g id="编组备份-3" transform="translate(353, 92)">
                    <polygon id="路径" fill="#FFFFFF" points="13.3328275 16.6662455 66.6646945 16.6662455 66.6646945 66.6658323 13.3328275 66.6658323"></polygon>
                    <path d="M40.0679912,79.9981523 C23.8650481,80.0380295 9.26209189,70.2781101 3.05906627,55.3182338 C-3.14395936,40.3583575 0.259089395,23.1554226 11.7020717,11.7155172 C23.1450541,0.2756118 40.3879886,-3.16435983 55.3140191,3.07558859 C70.270087,9.27907589 80.0142019,23.8837103 79.9999845,40.0752828 C79.9999845,62.1181776 62.1539625,79.9580301 40.0679912,79.9981523 Z" id="形状" fill="#C5CAD0"></path>
                    <g id="编组" transform="translate(17.7777, 24.4443)" fill="#FFFFFF">
                        <path d="M22.5739223,0 L22.7202176,0 L23.2942878,0.00366030712 C25.9183442,0.0183015785 32.8312607,0.0915080212 37.7793756,0.44838936 C38.6478883,0.550878345 40.54232,0.558199002 42.2330493,2.32064377 C43.5645218,3.66398171 43.9997041,6.71119929 43.9997041,6.71119929 C43.9997041,6.71119929 44.4441455,10.2909936 44.4441455,13.870788 L44.4441455,17.2273027 C44.4441455,20.8070971 43.9997041,24.3850613 43.9997041,24.3850613 C43.9997041,24.3850613 43.5663737,27.434109 42.2330493,28.777447 C40.5423199,30.5398917 38.6497401,30.5472124 37.7793756,30.6515316 C32.5497811,31.0267145 25.1127941,31.0962606 22.8813276,31.1090717 L22.5665149,31.1109019 L22.1479992,31.1109019 C21.1646725,31.1017511 10.4999294,30.9919414 7.11106329,30.6661728 C6.12218105,30.4813266 3.90182563,30.5380616 2.20924439,28.7756168 C0.877771874,27.4322789 0.444441455,24.3850613 0.444441455,24.3850613 C0.444441455,24.3850612 0,20.8052669 0,17.2254726 L0.00185185387,13.4699828 C0.0314812553,10.0292807 0.444441455,6.71302947 0.444441455,6.71302947 C0.444441455,6.71302947 0.877771874,3.66398171 2.20924439,2.32064377 C3.90182558,0.558199002 5.79440548,0.550878345 6.66476998,0.44838936 C7.93698364,0.356881338 9.33882608,0.283674896 10.7647424,0.225109767 L11.7184397,0.188506525 C15.5332289,0.0512444713 19.3535736,0.0146412714 21.1572651,0.00549048213 L21.735039,0 L21.8831862,0 L22.5739223,0 Z M18.518394,9.15080354 L18.518394,21.9619285 L29.6294304,15.5783279 L18.518394,9.15080354 Z" id="形状"></path>
                    </g>
                </g>
            </g>
        </g>
    </g>
</svg>