<?xml version="1.0" encoding="UTF-8"?>
<svg width="80px" height="80px" viewBox="0 0 80 80" version="1.1" xmlns="http://www.w3.org/2000/svg" xmlns:xlink="http://www.w3.org/1999/xlink">
    <title>编组备份 2</title>
    <g id="页面-1" stroke="none" stroke-width="1" fill="none" fill-rule="evenodd">
        <g id="1首页_未登录" transform="translate(-493, -3682)" fill-rule="nonzero">
            <g id="编组-33备份-3" transform="translate(30, 3590)">
                <g id="编组备份-2" transform="translate(463, 92)">
                    <path d="M40.0679912,79.9981523 C23.8650481,80.0380295 9.26209189,70.2781101 3.05906627,55.3182338 C-3.14395936,40.3583575 0.259089395,23.1554226 11.7020717,11.7155172 C23.1450541,0.2756118 40.3879886,-3.16435983 55.3140191,3.07558859 C70.270087,9.27907589 80.0142019,23.8837103 79.9999845,40.0752828 C79.9999845,62.1181776 62.1539625,79.9580301 40.0679912,79.9981523 Z" id="形状" fill="#C5CAD0"></path>
                    <g id="编组-35" transform="translate(19.9999, 19.9999)" fill="#FFFFFF">
                        <path d="M39.8063398,11.7285156 C39.6774125,8.49751951 38.903848,5.65424296 36.5831545,3.32792584 C34.262461,1.00160871 31.4260578,0.22616967 28.2028724,0.0969298588 C24.8507596,-0.0323099529 14.9233485,-0.0323099529 11.700163,0.0969298588 C8.47697746,0.22616967 5.76950183,1.00160871 3.31988089,3.32792584 C0.999187417,5.65424296 0.225622926,8.49751951 0.0966955399,11.7285156 C-0.0322318466,15.0887514 -0.0322318466,25.0402193 0.0966955399,28.2712154 C0.225622926,31.5022116 0.999187417,34.2162481 3.31988089,36.6718052 C5.76950183,38.9981223 8.47697755,39.7735613 11.700163,39.9028011 C15.0522758,40.0320409 24.9796869,40.0320409 28.2028724,39.9028011 C31.4260579,39.7735613 34.262461,38.9981223 36.5831545,36.6718052 C38.903848,34.2162481 39.6774125,31.5022115 39.8063398,28.2712154 C40.0641947,24.9109795 40.0641947,15.0887515 39.8063398,11.7285156 Z M35.5517351,31.7606911 C34.907098,33.5700489 33.4888964,34.8624473 31.81284,35.6378864 C29.1053643,36.6718052 22.9168483,36.4133254 20.0804451,36.4133254 C17.1151145,36.4133254 10.9265985,36.6718052 8.34805016,35.6378864 C6.54306632,34.8624474 5.2537922,33.5700489 4.48022771,31.7606911 C3.44880836,29.1758943 3.70666322,22.843142 3.70666322,19.9998655 C3.70666322,17.156589 3.44880836,10.8238367 4.48022771,8.23903988 C5.2537922,6.5589219 6.54306641,5.13728372 8.34805016,4.49108449 C10.9265985,3.45716574 17.2440419,3.71564544 20.0804451,3.71564544 C22.9168483,3.71564544 29.2342917,3.45716574 31.81284,4.49108449 C33.4888964,5.13728372 34.907098,6.55892199 35.5517351,8.23903988 C36.5831545,10.9530765 36.3252996,17.156589 36.3252996,19.9998655 C36.3252996,22.9723818 36.5831545,29.1758943 35.5517351,31.7606911 Z" id="形状"></path>
                        <path d="M19.6335676,9.62142494 C13.7239614,9.62142494 8.88882911,14.4565573 8.88882911,20.3661634 C8.88882911,26.2757695 13.5896522,31.1109019 19.6335676,31.1109019 C25.5431738,31.1109019 30.3783061,26.4100788 30.3783061,20.3661634 C30.3783061,14.4565572 25.5431737,9.62142494 19.6335676,9.62142494 Z M19.6335676,27.3502434 C15.8729091,27.3502434 12.6494876,24.2611311 12.6494876,20.3661634 C12.6494876,16.6055049 15.7385999,13.5163926 19.6335676,13.5163926 C23.3942261,13.5163926 26.4833384,16.6055049 26.4833384,20.3661634 C26.6176476,24.2611311 23.5285353,27.3502434 19.6335676,27.3502434 L19.6335676,27.3502434 Z M30.7812337,6.66662183 C29.4381414,6.66662183 28.2293584,7.7410957 28.2293584,9.21849725 C28.2293584,10.5615896 29.3038323,11.7703726 30.7812337,11.7703726 C32.1243261,11.7703726 33.3331092,10.6958987 33.3331092,9.21849725 C33.3331092,7.8754049 32.1243261,6.66662183 30.7812337,6.66662183 Z" id="形状"></path>
                    </g>
                </g>
            </g>
        </g>
    </g>
</svg>