<?xml version="1.0" encoding="UTF-8"?>
<svg width="720px" height="215px" viewBox="0 0 720 215" version="1.1" xmlns="http://www.w3.org/2000/svg" xmlns:xlink="http://www.w3.org/1999/xlink">
    <title>编组 11</title>
    <defs>
        <rect id="path-1" x="0" y="0" width="720" height="215" rx="6"></rect>
        <rect id="path-3" x="0" y="0" width="720" height="215" rx="22"></rect>
        <linearGradient x1="50%" y1="80.5108623%" x2="49.9201069%" y2="98.4248136%" id="linearGradient-5">
            <stop stop-color="#0385F2" stop-opacity="0.50137948" offset="0%"></stop>
            <stop stop-color="#0385F2" stop-opacity="0" offset="100%"></stop>
        </linearGradient>
        <linearGradient x1="49.9547485%" y1="64.5521191%" x2="49.8474246%" y2="94.1053534%" id="linearGradient-6">
            <stop stop-color="#0385F2" stop-opacity="0.50137948" offset="0%"></stop>
            <stop stop-color="#0385F2" stop-opacity="0" offset="100%"></stop>
        </linearGradient>
        <linearGradient x1="50%" y1="21.4843155%" x2="49.8474246%" y2="94.1053534%" id="linearGradient-7">
            <stop stop-color="#0385F2" offset="0%"></stop>
            <stop stop-color="#0385F2" stop-opacity="0" offset="100%"></stop>
        </linearGradient>
        <polygon id="path-8" points="0 5.68434189e-14 36.0710544 5.68434189e-14 36.0710544 594.371478 0 594.371478"></polygon>
        <linearGradient x1="50.2880002%" y1="-17.8628618%" x2="49.8474246%" y2="94.1053534%" id="linearGradient-10">
            <stop stop-color="#0385F2" stop-opacity="0.50137948" offset="0%"></stop>
            <stop stop-color="#0385F2" stop-opacity="0" offset="100%"></stop>
        </linearGradient>
    </defs>
    <g id="页面-1" stroke="none" stroke-width="1" fill="none" fill-rule="evenodd">
        <g id="1首页_未登录" transform="translate(-15, -848)">
            <g id="编组-11" transform="translate(15, 848)">
                <mask id="mask-2" fill="white">
                    <use xlink:href="#path-1"></use>
                </mask>
                <use id="矩形备份" fill="#F7F7F7" xlink:href="#path-1"></use>
                <g id="编组-10备份-27" mask="url(#mask-2)">
                    <mask id="mask-4" fill="white">
                        <use xlink:href="#path-3"></use>
                    </mask>
                    <use id="蒙版" fill="#010D17" xlink:href="#path-3"></use>
                    <g id="编组" mask="url(#mask-4)">
                        <g transform="translate(-25.0601, -323.9311)">
                            <path d="M218.085761,505.768727 L218.085761,505.768727 L218.085761,-70.5672042 C218.085761,-80.5280365 226.160476,-88.6027514 236.121308,-88.6027514 L236.121308,-88.6027514 C246.08214,-88.6027514 254.156855,-80.5280365 254.156855,-70.5672042 L254.156855,469.697632 C254.156855,489.619297 238.007425,505.768727 218.085761,505.768727" id="Fill-1" fill="#0385F2" transform="translate(236.1213, 208.583) rotate(49) translate(-236.1213, -208.583)"></path>
                            <path d="M297.557173,-86.3735233 L297.557173,-86.3735233 L297.557173,489.962408 C297.557173,499.92324 305.631888,507.997955 315.59272,507.997955 L315.59272,507.997955 C325.553553,507.997955 333.628268,499.92324 333.628268,489.962408 L333.628268,-50.3024289 C333.628268,-70.2240935 317.478838,-86.3735233 297.557173,-86.3735233" id="Fill-3" fill="#0385F2" transform="translate(315.5927, 210.8122) rotate(49) translate(-315.5927, -210.8122)"></path>
                            <path d="M289.914344,585.954438 L289.914344,585.954438 L289.914344,9.61850704 C289.914344,-0.342325289 297.989059,-8.41704017 307.949891,-8.41704017 L307.949891,-8.41704017 C317.910723,-8.41704017 325.985438,-0.342325289 325.985438,9.61850704 L325.985438,549.883344 C325.985438,569.805008 309.836008,585.954438 289.914344,585.954438" id="Fill-5" fill="#0385F2" opacity="0.100000001" transform="translate(307.9499, 288.7687) rotate(49) translate(-307.9499, -288.7687)"></path>
                            <path d="M369.385756,-6.18781205 L369.385756,-6.18781205 L369.385756,570.148119 C369.385756,580.108951 377.460471,588.183666 387.421303,588.183666 L387.421303,588.183666 C397.382135,588.183666 405.45685,580.108951 405.45685,570.148119 L405.45685,29.8832824 C405.45685,9.96161772 389.307421,-6.18781205 369.385756,-6.18781205" id="Fill-7" fill="url(#linearGradient-5)" transform="translate(387.4213, 290.9979) rotate(49) translate(-387.4213, -290.9979)"></path>
                            <path d="M354.785886,672.187812 L354.785886,672.187812 L354.785886,95.851881 C354.785886,85.8910487 362.860601,77.8163338 372.821434,77.8163338 L372.821434,77.8163338 C382.782266,77.8163338 390.856981,85.8910487 390.856981,95.851881 L390.856981,636.116718 C390.856981,656.038382 374.707551,672.187812 354.785886,672.187812" id="Fill-9" fill="#0385F2" opacity="0.100000001" transform="translate(372.8214, 375.0021) rotate(49) translate(-372.8214, -375.0021)"></path>
                            <path d="M434.257299,80.0455619 L434.257299,80.0455619 L434.257299,656.381493 C434.257299,666.342325 442.332014,674.41704 452.292846,674.41704 L452.292846,674.41704 C462.253678,674.41704 470.328393,666.342325 470.328393,656.381493 L470.328393,116.116656 C470.328393,96.1949917 454.178963,80.0455619 434.257299,80.0455619" id="Fill-11" fill="url(#linearGradient-6)" transform="translate(452.2928, 377.2313) rotate(49) translate(-452.2928, -377.2313)"></path>
                            <path d="M426.614496,752.373554 L426.614496,752.373554 L426.614496,176.037623 C426.614496,166.07679 434.68921,158.002075 444.650043,158.002075 L444.650043,158.002075 C454.610875,158.002075 462.68559,166.07679 462.68559,176.037623 L462.68559,716.302459 C462.68559,736.224124 446.53616,752.373554 426.614496,752.373554" id="Fill-13" fill="url(#linearGradient-7)" opacity="0.200000003" transform="translate(444.65, 455.1878) rotate(49) translate(-444.65, -455.1878)"></path>
                            <g id="编组" stroke-width="1" fill="none" transform="translate(524.1214, 457.417) rotate(49) translate(-524.1214, -457.417)translate(506.0859, 160.2313)">
                                <mask id="mask-9" fill="white">
                                    <use xlink:href="#path-8"></use>
                                </mask>
                                <g id="Clip-16"></g>
                                <path d="M0,5.68434189e-14 L0,5.68434189e-14 L0,576.335931 C0,586.296763 8.07471488,594.371478 18.0355472,594.371478 L18.0355472,594.371478 C27.9963795,594.371478 36.0710944,586.296763 36.0710944,576.335931 L36.0710944,36.0710944 C36.0710944,16.1494298 19.9216647,5.68434189e-14 0,5.68434189e-14" id="Fill-15" fill="url(#linearGradient-10)" mask="url(#mask-9)"></path>
                            </g>
                        </g>
                    </g>
                    <path d="M349.605211,32.3093411 C349.605211,33.2472614 348.844889,34.0075832 347.906969,34.0075832 C346.969049,34.0075832 346.208727,33.2472614 346.208727,32.3093411 C346.208727,31.3714209 346.969049,30.6110991 347.906969,30.6110991 C348.844889,30.6110991 349.605211,31.3714209 349.605211,32.3093411" id="Fill-27" fill="#0385F2" mask="url(#mask-4)"></path>
                    <path d="M38.896824,43.5583606 C38.896824,48.5289606 34.867424,52.5583606 29.896824,52.5583606 C24.926224,52.5583606 20.896824,48.5289606 20.896824,43.5583606 C20.896824,38.5877606 24.926224,34.5583606 29.896824,34.5583606 C34.867424,34.5583606 38.896824,38.5877606 38.896824,43.5583606" id="Fill-27备份" fill="#0385F2" opacity="0.100000001" mask="url(#mask-4)"></path>
                </g>
            </g>
        </g>
    </g>
</svg>