<?xml version="1.0" encoding="UTF-8"?>
<svg width="60px" height="60px" viewBox="0 0 60 60" version="1.1" xmlns="http://www.w3.org/2000/svg" xmlns:xlink="http://www.w3.org/1999/xlink">
    <title>icon-足球</title>
    <g id="页面-1" stroke="none" stroke-width="1" fill="none" fill-rule="evenodd">
        <g id="1首页_未登录" transform="translate(-162, -689)">
            <g id="编组-5" transform="translate(138, 665)">
                <g id="icon-足球" transform="translate(24, 24)">
                    <rect id="矩形" fill="#F7F7F7" opacity="0" x="0" y="0" width="60" height="60"></rect>
                    <g id="编组" transform="translate(9.4737, 9.4737)" fill="#AE2524" fill-rule="nonzero">
                        <path d="M38.8145908,31.3234889 C39.0287624,30.9485818 39.2250864,30.5736748 39.4124865,30.1898414 L39.5284962,29.9577561 C39.6950741,29.6066527 39.8527282,29.2555493 40.0014584,28.9044459 L40.0014584,28.8151824 C42.702423,22.1929625 41.773305,14.6429963 37.5474088,8.87369911 C36.7146181,7.74027127 35.7666007,6.69625787 34.7185589,5.75840027 C34.1970195,5.29333548 33.6519489,4.85536725 33.0855004,4.44622568 C32.5107191,4.03202376 31.9150103,3.64768217 31.3007371,3.29472552 C30.8277747,3.02693479 30.3369648,2.77699679 29.8372311,2.53598509 L29.1857925,2.23248894 L28.7752969,2.0718145 C24.6238383,0.354058629 20.0207383,0.0590248187 15.6840577,1.23273688 C15.1932478,1.36663225 14.7113617,1.53623303 14.2294755,1.69690747 L14.1848564,1.69690747 C13.7743609,1.83972918 13.3638653,2.00040362 12.9622935,2.17893079 L12.64996,2.31282616 C12.2483882,2.49135333 11.8557403,2.67880684 11.4630923,2.88411304 L11.2935398,2.98230299 C10.083949,3.64120521 8.94472492,4.4218408 7.8935656,5.31208236 L7.50091765,5.64235759 C7.2153555,5.89229559 6.92979339,6.15115998 6.66207888,6.4278771 L6.25158332,6.84741589 C5.71527559,7.41327347 5.21174578,8.00933641 4.74345826,8.63268745 L4.5382105,8.89155184 C4.07830083,9.50143116 3.65228828,10.136162 3.26210468,10.792866 C0.311484913,15.9211709 -0.283734035,22.073518 1.62904621,27.6726086 L1.74505581,27.9939574 C1.88783687,28.4045699 2.04846557,28.806256 2.21801812,29.1990157 L2.36079917,29.5114383 C2.50358024,29.8327871 2.65528513,30.1481851 2.81591383,30.4576322 L2.99439018,30.8146865 C3.20261258,31.1955444 3.41975878,31.5704514 3.64582879,31.9394076 L3.80645749,32.1893456 C4.03847673,32.5523508 4.2823944,32.9064297 4.5382105,33.2515821 L4.5917534,33.322993 C7.10839637,36.7076632 10.608209,39.2327348 14.6131997,40.5533428 L14.8273713,40.6158273 C15.2200192,40.7407963 15.6037433,40.856839 15.9963913,40.9550289 L16.5407441,41.0799979 L17.4331257,41.2585251 L18.0756406,41.3656413 L18.9055555,41.4638313 L19.5480703,41.5263158 L21.0651192,41.5263158 C21.5380815,41.5263158 22.0110438,41.5263158 22.4750823,41.4727576 L22.8052635,41.4727576 C23.2336067,41.4370522 23.6619499,41.3864695 24.0902931,41.3210096 L24.3044647,41.3210096 C29.6587651,40.4532921 34.4519931,37.5007985 37.636647,33.1087604 L37.6901899,33.0462759 L37.8865138,32.7517061 L38.1542284,32.3589464 C38.3951714,32.0108184 38.609343,31.6716168 38.8145908,31.3234889 L38.8145908,31.3234889 Z M38.707505,27.3066279 C38.5468763,27.7707985 38.3773238,28.1992636 38.172076,28.6723606 L38.0560664,28.9222987 C37.8151233,29.4400274 37.5563326,29.9577562 37.2707705,30.4576322 L35.637712,25.5213564 L39.6980487,22.5756583 L39.6980487,22.7809645 C39.6980487,23.2094297 39.6088105,23.6736003 39.53742,24.0485073 C39.53742,24.289519 39.4571056,24.5305306 39.4124865,24.7715423 C39.3678674,25.012554 39.3054007,25.2803447 39.242934,25.5302827 C39.144772,25.9319688 39.0376862,26.3425812 38.903829,26.7442673 C38.8324384,26.9138681 38.7699717,27.0834689 38.707505,27.3066279 L38.707505,27.3066279 Z M30.2834219,22.4328365 L27.2850195,13.2743935 L29.5248975,10.2840637 L36.3159221,10.2840637 C38.4093947,13.229812 39.6113528,16.7158631 39.778363,20.3262161 L34.4240729,24.1734763 L30.2834219,22.4328365 Z M24.6078745,39.4375481 L23.8404262,39.5714434 C23.4388545,39.6339279 23.0283589,39.6785597 22.6178633,39.7142652 L22.2341392,39.7142652 C21.7165578,39.7499706 21.1989765,39.7499706 20.6813951,39.7142652 L20.4136806,39.7142652 C19.8604039,39.7142652 19.3160511,39.660707 18.7627745,39.5892962 L18.637841,39.5892962 C18.0667168,39.5178853 17.5045163,39.4196954 16.933392,39.2947264 L21.0383477,36.366881 L25.1076082,39.3215054 L24.6078745,39.4375481 Z M21.0383477,28.0296629 L13.6048083,22.6292164 L16.4425821,13.9170912 L25.6341134,13.9170912 L28.4718872,22.6649219 L21.0383477,28.0296629 Z M30.4083554,4.8211327 C30.9170129,5.11570251 31.3988991,5.42812504 31.8629375,5.75840027 L32.2912807,6.07974915 C32.6125381,6.31778534 32.9099987,6.5647479 33.1836624,6.82063681 L33.6387771,7.22232291 C33.9243392,7.4811873 34.1920537,7.74897803 34.4597682,8.02569511 C34.5936255,8.15959048 34.7274827,8.29348584 34.8524162,8.42738121 L34.9059591,8.48986574 L29.5070499,8.48986574 L27.9275343,3.64285348 C28.7834633,3.97488494 29.6128118,4.37177256 30.4083554,4.83005904 L30.4083554,4.8211327 Z M16.1927152,2.95552391 C17.7731674,2.53169748 19.4020874,2.31564659 21.0383477,2.31282616 C22.6412175,2.31449503 24.2370734,2.52453584 25.7858183,2.93767119 L27.9453819,9.45391238 L25.9732184,12.1318197 L16.0142389,12.1318197 L13.2746271,9.35572243 L15.2557145,3.25009372 C15.5680481,3.15190377 15.8714578,3.03586113 16.1927152,2.95552391 Z M13.1139984,4.09809772 L11.6772639,8.50771843 L7.13504119,8.50771843 C8.81045502,6.64968688 10.8442009,5.14975177 13.1139984,4.09809772 L13.1139984,4.09809772 Z M4.81484881,11.6855018 C5.09148711,11.2034785 5.39489691,10.7393079 5.70723047,10.29299 L11.6861878,10.29299 L14.7381331,13.3458043 L11.7575783,22.5310265 L7.50091765,24.9679222 L2.29833247,21.2099256 C2.266246,17.8665921 3.1355698,14.5764056 4.81484881,11.6855018 L4.81484881,11.6855018 Z M4.707763,30.1987678 C4.52036285,29.8684926 4.3329627,29.5382173 4.172334,29.1990157 C4.01170529,28.8598142 3.95816239,28.6902133 3.84215279,28.4402753 C3.72614318,28.1903373 3.55659064,27.7886512 3.44058103,27.458376 C3.32457143,27.1281007 3.29779998,27.0031317 3.22640943,26.7799728 C3.10147598,26.3961394 2.98546638,26.0033797 2.88730438,25.6106199 C2.88730438,25.4410191 2.81591383,25.2714183 2.78021858,25.1018175 C2.67313277,24.6287205 2.58389462,24.1556236 2.52142787,23.6736003 L2.52142787,23.5575576 L6.43898348,26.4139921 L5.02009661,30.7700547 C4.91301081,30.5826012 4.81484881,30.3862213 4.707763,30.1987678 Z M6.30512623,32.6178108 L8.26836591,26.5835929 L12.6053409,24.1020655 L20.1459661,29.5828491 L20.1459661,34.8047684 L14.791676,38.7055868 C11.4388771,37.5350884 8.49723826,35.4173735 6.32297383,32.6088844 L6.30512623,32.6178108 Z M27.2850195,38.7055868 L21.9307294,34.8047684 L21.9307294,29.5828491 L29.5784404,24.0306546 L33.8797201,25.8694843 L35.9857409,32.3410937 C33.7749423,35.2729403 30.7482768,37.4869167 27.2850195,38.7055868 L27.2850195,38.7055868 Z" id="形状"></path>
                    </g>
                </g>
            </g>
        </g>
    </g>
</svg>