<?xml version="1.0" encoding="UTF-8"?>
<svg width="36px" height="40px" viewBox="0 0 36 40" version="1.1" xmlns="http://www.w3.org/2000/svg" xmlns:xlink="http://www.w3.org/1999/xlink">
    <title>icon_头像</title>
    <g id="页面-1" stroke="none" stroke-width="1" fill="none" fill-rule="evenodd">
        <g id="1首页_已登录备份-3" transform="translate(-387, -140)" fill="#576673" fill-rule="nonzero">
            <g id="编组-2备份-4" transform="translate(367, 121)">
                <g id="icon_头像" transform="translate(18, 19)">
                    <g transform="translate(2, 0)" id="形状">
                        <path d="M18.0006084,17.9002546 C12.9872571,17.9002546 8.90965016,13.8852778 8.90965016,8.9501273 C8.90965016,4.01497679 12.9872571,0 18.0006084,0 C23.0127429,0 27.0903498,4.01497679 27.0903498,8.9501273 C27.0903498,13.8852778 23.0127429,17.9002546 18.0006084,17.9002546 Z M18.0006084,2.63471619 C14.4632753,2.63471619 11.5854656,5.4683241 11.5854656,8.9501273 C11.5854656,12.4319305 14.4632753,15.2655384 18.0006084,15.2655384 C21.5367247,15.2655384 24.4145344,12.4319305 24.4145344,8.9501273 C24.4145344,5.4683241 21.5367247,2.63471619 18.0006084,2.63471619 Z M24.6323475,40 L11.3676525,40 C5.09974649,40 0,35.5417103 0,30.062603 C0,24.5846937 5.09974649,20.1264041 11.3676525,20.1264041 L24.6323475,20.1264041 C30.8990367,20.1264041 36,24.5846937 36,30.062603 C36,35.5429085 30.9002535,40 24.6323475,40 Z M11.3676525,22.7611203 C6.57454791,22.7611203 2.67459861,26.0368429 2.67459861,30.0638011 C2.67459861,34.0907593 6.57454791,37.3676801 11.3676525,37.3676801 L24.6323475,37.3676801 C29.4242353,37.3676801 33.3254014,34.0919575 33.3254014,30.0638011 C33.3254014,26.038041 29.4254521,22.7611203 24.6323475,22.7611203 L11.3676525,22.7611203 Z"></path>
                    </g>
                </g>
            </g>
        </g>
    </g>
</svg>