<?xml version="1.0" encoding="UTF-8"?>
<svg width="60px" height="60px" viewBox="0 0 60 60" version="1.1" xmlns="http://www.w3.org/2000/svg" xmlns:xlink="http://www.w3.org/1999/xlink">
    <title>icon-足球</title>
    <g id="页面-1" stroke="none" stroke-width="1" fill="none" fill-rule="evenodd">
        <g id="1首页_未登录" transform="translate(-408, -689)">
            <g id="编组-5备份-2" transform="translate(384, 665)">
                <g id="icon-足球" transform="translate(24, 24)">
                    <rect id="矩形" fill="#F7F7F7" opacity="0" x="0" y="0" width="60" height="60"></rect>
                    <g id="编组" transform="translate(13, 13)" fill="#B01963" fill-rule="nonzero">
                        <path d="M15.9641509,31.0603774 C15.7358491,30.9566038 15.4867925,30.8320755 15.445283,30.8320755 C15.590566,30.9150943 15.7566038,30.9981132 15.9641509,31.0603774 Z M8.30188679,31.8283019 C4.29622642,29.1509434 1.66037736,24.5849057 1.66037736,19.3962264 C1.66037736,14.2075472 4.29622642,9.64150943 8.30188679,6.96415094 L8.30188679,5.17924528 C3.34150943,8.02264151 0,13.3773585 0,19.5 C0,25.2490566 2.94716981,30.3132075 7.40943396,33.2603774 L8.30188679,32.0566038 L8.30188679,31.8283019 Z M15.1132075,34.9622642 L15.1132075,34.5471698 L10.7339623,34.5471698 C12.809434,35.4811321 15.0924528,36 17.5,36 C19.9075472,36 22.2113208,35.4811321 24.2660377,34.5471698 L15.1132075,34.5471698 L15.1132075,34.9622642 Z M17.5,3 C16.690566,3 15.9018868,3.06226415 15.1132075,3.16603774 L15.1132075,4.66037736 C15.9226415,4.51509434 16.7528302,4.45283019 17.6037736,4.45283019 C25.8641509,4.45283019 32.5471698,11.1358491 32.5471698,19.3962264 C32.5471698,24.2113208 30.2641509,28.4867925 26.7358491,31.2264151 L29.1018868,31.2264151 C32.1320755,28.2377358 34,24.0867925 34,19.5 C34,10.3886792 26.6113208,3 17.5,3 Z" id="形状"></path>
                        <path d="M14.9745373,30.4461699 L14.9745373,30.289282 L14.9745373,30.4461699 Z M32.8677646,29.4734651 L16.5661225,29.4734651 L16.5661225,1.12382934 C16.5661225,-0.0998959417 15.534373,0.00208116545 15.534373,0.00208116545 L6.14545251,0.00208116545 C4.49465331,0.00208116545 5.11370301,1.42976067 5.11370301,1.42976067 L7.38355191,4.28511967 L7.48672686,4.38709677 L7.48672686,31.7169615 L5.42322786,34.3683663 C4.39147836,36 5.83592766,36 5.83592766,36 L29.5661662,36 L33.4868143,31.3090531 C34.9312636,29.4734651 32.8677646,29.4734651 32.8677646,29.4734651 Z M28.5344167,34.5723205 L14.9153233,34.5723205 L14.9153233,34.9802289 L14.9153233,34.5723205 L7.28037696,34.5723205 L7.89942666,33.7565036 L9.13752606,32.1248699 L9.13752606,4.18314256 C9.13752606,4.18314256 9.55022586,4.18314256 7.48672686,1.73569199 L14.9153233,1.73569199 L14.9153233,30.4116545 C14.9359583,30.5136316 14.9772282,30.676795 15.1629432,30.8399584 C15.2661181,30.9011446 15.431198,31.0031217 15.7407229,31.1050989 C15.7407229,31.1050989 16.3597726,31.3090531 17.1851722,31.3090531 L31.2169654,31.3090531 L28.5344167,34.5723205 L28.5344167,34.5723205 Z" id="形状"></path>
                        <path d="M15.5918367,31.0152174 C15.9183673,31.0369565 16.3673469,31.05 17,31.05 C16.1836735,31.05 15.5714286,31.0065217 15.5714286,31.0065217 C15.2653061,30.9847826 15.1020408,30.9630435 15,30.95 C15.0204082,30.9543478 15.0612245,30.9586957 15.1020408,30.9673913 C15.1428571,30.9673913 15.3877551,30.9934783 15.5918367,31.0152174 L15.5918367,31.0152174 Z" id="路径"></path>
                        <path d="M8.70866142,10.9583333 L8.70866142,9.04166667 C5.84251969,11.4583333 4,15.125 4,19.2291667 C4,23.3333333 5.84251969,27 8.70866142,29.4166667 L8.70866142,27.2916667 C6.68188976,25.1875 5.43307087,22.3125 5.43307087,19.125 C5.43307087,15.9375 6.68188976,13.0625 8.70866142,10.9583333 Z M18,6 C17.119685,6 16.2598425,6.08333333 15.4409449,6.25 L15.4409449,7.72916667 C16.2393701,7.5625 17.0582677,7.45833333 17.8976378,7.45833333 C24.223622,7.45833333 29.3622047,12.6875 29.3622047,19.125 C29.3622047,25.5625 24.223622,30.7916667 17.8976378,30.7916667 C17.1811024,30.7916667 16.4850394,30.7083333 15.7889764,30.5833333 C15.8913386,30.6458333 16.0346457,30.7083333 16.2598425,30.7916667 C16.2598425,30.7916667 16.8740157,31 17.6929134,31 L23.9370079,31 C28.1338583,28.8125 31,24.3541667 31,19.2291667 C31,11.9166667 25.1858268,6 18,6 Z" id="形状"></path>
                    </g>
                </g>
            </g>
        </g>
    </g>
</svg>