<?xml version="1.0" encoding="UTF-8"?>
<svg width="28px" height="28px" viewBox="0 0 28 28" version="1.1" xmlns="http://www.w3.org/2000/svg" xmlns:xlink="http://www.w3.org/1999/xlink">
    <title>编组</title>
    <g id="页面-1" stroke="none" stroke-width="1" fill="none" fill-rule="evenodd">
        <g id="1首页_已登录备份-3" transform="translate(-30, -481)" fill="#0385F2" fill-rule="nonzero">
            <g id="编组-3" transform="translate(0, 465)">
                <g id="编组" transform="translate(30, 16)">
                    <path d="M26.2975771,7.29629743 C25.2169639,5.33914592 23.6702791,3.69721557 21.8253847,2.54836578 C21.6374009,2.42871378 21.4701102,2.34901982 21.2644801,2.34901982 C20.7447397,2.34901982 20.3218952,2.79661991 20.3218952,3.34679702 C20.3218952,3.72022557 20.5159727,4.04630112 20.8522678,4.24009294 C24.1046128,6.25459489 26.125018,9.98389753 26.125018,13.9725625 C26.125018,17.9575142 24.1065488,21.6851347 20.8591867,23.6995732 C20.5903981,23.8561999 20.3031698,24.1769435 20.3031698,24.6075638 C20.3031698,25.1577409 20.7267761,25.605341 21.2474686,25.605341 C21.4668412,25.605341 21.6400669,25.5106032 21.7990739,25.4132947 C23.6519981,24.265651 25.2051257,22.6225781 26.2905631,20.6617767 C27.408881,18.6415302 28,16.3284377 28,13.972499 C28,11.6219876 27.4113247,9.31333844 26.2975771,7.29629743 Z M22.8647068,13.9725943 C22.8647068,12.5856782 22.5163195,11.2239621 21.8572813,10.0346782 C21.2176349,8.88043299 20.3025668,7.91360026 19.2110039,7.23869307 L19.2076397,7.23669359 C19.17587,7.21917425 18.891276,7.06546743 18.6799014,7.06546743 C18.1563841,7.06546743 17.7304927,7.51459095 17.7304927,8.06660887 C17.7304927,8.42842134 17.9103834,8.76360565 18.2005316,8.94162375 C19.9031448,9.9678064 20.960875,11.8955051 20.960875,13.9725308 C20.960875,16.0929106 19.8704548,18.041112 18.1150931,19.0569481 L18.1119827,19.0588523 C17.8284043,19.2407107 17.6591141,19.560756 17.6591141,19.9149514 C17.6591141,20.4679532 18.0842438,20.9179019 18.6060472,20.9179019 L18.6110935,20.9179019 C18.6111253,20.9179019 18.6111253,20.9179019 18.6111253,20.9179019 C18.8312278,20.9179019 19.0801167,20.7885381 19.0905903,20.7830474 L19.0941449,20.7810479 C21.4199325,19.4033676 22.8647068,16.7945093 22.8647068,13.9725943 Z M15.0217235,0.119842437 C14.8685562,0.0414497467 14.6975522,0 14.5273099,0 C14.2712483,0 14.0199473,0.0928017127 13.8199031,0.261203207 L13.8153963,0.264980008 C13.6520729,0.402627434 12.1731486,1.64605626 10.5627022,2.9044654 C7.65309529,5.17982145 6.7707807,5.58616223 6.59736463,5.6516376 L2.90186289,5.65163763 C2.87758338,5.65163763 2.8557794,5.65328801 2.83549887,5.65506533 L0.94426705,5.65506533 C0.423574499,5.65506533 -1.76300383e-15,6.10228459 -1.76300383e-15,6.65201734 L-1.76300383e-15,21.3067551 C-1.76300383e-15,21.8559483 0.423606228,22.302755 0.94426705,22.302755 L7.28426873,22.3045958 C7.45273368,22.3747048 8.28328371,22.7940582 10.8621496,25.0262507 C11.7423695,25.7876437 12.7595069,26.7037592 13.7261492,27.6058783 C13.7517934,27.6298087 13.7684876,27.6453286 13.7755334,27.6517714 L13.7755334,27.6518031 C13.9823695,27.8477214 14.2491586,27.9555986 14.5267703,27.9555986 C14.6851426,27.9555986 14.8461809,27.9188778 14.9926197,27.8492765 C15.4106401,27.6497401 15.6914891,27.2115344 15.6914891,26.7590784 C15.6915843,26.7101703 15.7005344,21.8688656 15.7005344,21.7723506 C15.7005344,21.6738677 15.6601637,1.40103939 15.6597511,1.19642492 C15.6597194,0.734479297 15.4152739,0.321981373 15.0217235,0.119842437 Z M13.7965757,21.6113123 L13.7821032,24.8034186 C13.3005117,24.3715923 12.8345036,23.9621729 12.3949015,23.5848406 C8.86592872,20.5508844 7.98136073,20.2970127 7.37783217,20.2970127 C7.36586698,20.2970127 7.35602822,20.2985044 7.34882369,20.2996152 C7.34695116,20.2999008 7.34507862,20.3002817 7.34450732,20.3004086 C7.34253957,20.3002499 7.34066703,20.2998691 7.3387945,20.2996152 C7.33162173,20.2985044 7.32178297,20.2970127 7.30981775,20.2970127 L2.54331944,20.2970127 C1.99504659,20.2970127 1.8766641,20.1641576 1.8766641,19.548886 L1.8766641,8.30194565 C1.8766641,7.87018276 1.92281105,7.66677435 2.34451301,7.66677435 L6.63862391,7.66677435 C7.2260931,7.66677435 8.12237239,7.41585422 11.9789441,4.41719063 C12.5675559,3.95952961 13.1878421,3.46689337 13.781405,2.98568279 C13.7829601,4.84492279 13.7965757,21.5375851 13.7965757,21.6113123 Z" id="形状"></path>
                </g>
            </g>
        </g>
    </g>
</svg>