<?xml version="1.0" encoding="UTF-8"?>
<svg width="100%" height="100%" viewBox="0 0 710 197" version="1.1" xmlns="http://www.w3.org/2000/svg" xmlns:xlink="http://www.w3.org/1999/xlink">
    <title>编组 25</title>
    <defs>
        <linearGradient x1="96.9867043%" y1="46.806313%" x2="0%" y2="53.5806388%" id="linearGradient-1">
            <stop stop-color="#FFDD7D" offset="0%"></stop>
            <stop stop-color="#FFBD00" offset="100%"></stop>
        </linearGradient>
        <path d="M24,0 L686,0 C699.254834,-2.4348735e-15 710,10.745166 710,24 L710,166 C710,179.254834 699.254834,190 686,190 L24,190 C10.745166,190 8.11624501e-16,179.254834 0,166 L-3.55271368e-15,24 C-5.17596268e-15,10.745166 10.745166,1.623249e-15 24,0 Z" id="path-2"></path>
        <linearGradient x1="100%" y1="44.0275711%" x2="-3.24429625%" y2="57.9830055%" id="linearGradient-4">
            <stop stop-color="#FFBD00" stop-opacity="0" offset="0%"></stop>
            <stop stop-color="#FFD55C" offset="100%"></stop>
        </linearGradient>
        <polygon id="path-5" points="0 0 259 0 259 134 0 134"></polygon>
        <linearGradient x1="96.6976967%" y1="100%" x2="0%" y2="100%" id="linearGradient-7">
            <stop stop-color="#A5D6FF" offset="0%"></stop>
            <stop stop-color="#1993F9" offset="100%"></stop>
        </linearGradient>
        <linearGradient x1="96.6976967%" y1="100%" x2="0%" y2="100%" id="linearGradient-8">
            <stop stop-color="#FFFFFF" offset="0%"></stop>
            <stop stop-color="#FFFFFF" offset="100%"></stop>
        </linearGradient>
        <polygon id="path-9" points="0 0 259 0 259 134 0 134"></polygon>
        <linearGradient x1="96.6976967%" y1="100%" x2="0%" y2="100%" id="linearGradient-11">
            <stop stop-color="#A5D6FF" offset="0%"></stop>
            <stop stop-color="#1993F9" offset="100%"></stop>
        </linearGradient>
        <linearGradient x1="96.6976967%" y1="100%" x2="0%" y2="100%" id="linearGradient-12">
            <stop stop-color="#FFFFFF" offset="0%"></stop>
            <stop stop-color="#FFFFFF" offset="100%"></stop>
        </linearGradient>
        <linearGradient x1="0%" y1="50%" x2="90.2507878%" y2="50%" id="linearGradient-13">
            <stop stop-color="#121A23" offset="0%"></stop>
            <stop stop-color="#312503" offset="100%"></stop>
        </linearGradient>
    </defs>
    <g id="页面-1" stroke="none" stroke-width="1" fill="none" fill-rule="evenodd">
        <g id="1首页_未登录" transform="translate(-15, -238)">
            <g id="编组-25" transform="translate(15, 238.9719)">
                <g id="路径-4" transform="translate(0, 6.0003)">
                    <mask id="mask-3" fill="white">
                        <use xlink:href="#path-2"></use>
                    </mask>
                    <use id="蒙版" fill="url(#linearGradient-1)" xlink:href="#path-2"></use>
                    <polygon fill="url(#linearGradient-4)" mask="url(#mask-3)" transform="translate(273.2013, 95) scale(-1, 1) translate(-273.2013, -95)" points="59.9868863 -1.85694353e-06 -1.67230462 190 548.075 190 548.059545 -1.85694353e-06"></polygon>
                    <g id="编组-2备份-2" opacity="0.100000001" mask="url(#mask-3)">
                        <g transform="translate(-88, -1.9722)" id="编组">
                            <g>
                                <mask id="mask-6" fill="white">
                                    <use xlink:href="#path-5"></use>
                                </mask>
                                <g id="Clip-6"></g>
                                <path d="M150.446451,1.76304322 C79.4932028,-9.94583285 12.4881909,37.896666 0.382702293,108.712733 L0.440207376,108.722991 C0.388943154,108.982544 0.279728074,109.215339 0.236487818,109.478906 C-0.130831472,111.702945 -0.0349896667,113.879267 0.282848505,115.998504 C1.60234498,124.803686 8.35896935,132.192475 17.6021313,133.716346 C29.0683774,135.610816 39.9377297,127.814412 41.8291565,116.344129 C41.8487707,116.226839 41.8487707,116.113564 41.8518911,115.998504 C41.8550115,115.854011 41.8590235,115.708179 41.8795292,115.561902 L41.9949851,115.580187 C50.3015721,67.8242054 95.6833354,35.4688191 143.583732,43.3767143 C172.251131,48.1070914 195.387342,66.2142628 207.758959,90.2550315 C215.757961,105.799228 231.297261,115.998504 248.773011,115.998504 L259,115.998504 C252.598213,59.3606346 209.441317,11.501189 150.446451,1.76304322" id="Fill-5" fill="url(#linearGradient-8)" mask="url(#mask-6)"></path>
                            </g>
                            <g transform="translate(0, 128)">
                                <mask id="mask-10" fill="white">
                                    <use xlink:href="#path-9"></use>
                                </mask>
                                <g id="Clip-8"></g>
                                <path d="M258.830467,18.6661279 C257.807101,9.57116317 250.921543,1.8441457 241.414082,0.281537559 C229.954339,-1.59988876 219.091597,6.14796939 217.199906,17.5562504 L217.161591,17.5500426 C217.121494,17.8103294 217.116594,18.063965 217.073378,18.3220348 C217.053775,18.438654 217.018578,18.5495087 216.998084,18.6661279 C208.894021,66.3828773 163.392756,98.7577769 115.376514,90.8729023 C86.726266,86.1691148 63.595157,68.1658647 51.2229831,44.2620395 C43.2236175,28.8066743 27.6895668,18.6661279 10.2210552,18.6661279 L-0.000133656902,18.6661279 C6.39980434,74.9825432 49.5549449,122.565824 108.518578,132.246545 C179.688651,143.931519 246.902925,95.9833049 258.643348,25.1484685 C258.677207,24.943609 258.699929,24.7409666 258.727551,24.5383242 C258.737798,24.4851139 258.761411,24.4358944 258.769876,24.3826841 C259.09288,22.4374055 259.040309,20.5333648 258.830467,18.6661279" id="Fill-7" fill="url(#linearGradient-12)" mask="url(#mask-10)"></path>
                            </g>
                        </g>
                    </g>
                </g>
                <g id="编组-30" transform="translate(145, 0)">
                    <path d="M429,6.00031398 C429,2.68660548 426.313708,0.000313976585 423,0.000313976585 L415,0.000313976585 L415,0.000313976585 L415,6.00031398 L429,6.00031398 Z" id="路径-2" fill="#000000"></path>
                    <path d="M14,6.00031398 C14,2.68660548 11.3137085,0.000313976585 8,0.000313976585 L0,0.000313976585 L0,0.000313976585 L0,6.00031398 L14,6.00031398 Z" id="路径-2备份" fill="#000000" transform="translate(7, 3.0003) scale(-1, 1) translate(-7, -3.0003)"></path>
                    <path d="M38.6277337,71.0938959 C29.8555256,71.1246783 23.5991551,66.8714238 19.8586223,58.3341326 C14.7041212,46.569638 19.8586223,15.0281077 11.3985902,4.0862235 C9.30174649,1.37424544 7.36506438,0.0121709388 5.5885439,0 L422.858622,0 C421.082102,0.0121709388 419.14542,1.37424544 417.048576,4.0862235 C412.548559,9.90637467 411.900549,21.5548549 411.504137,32.9551141 L411.457545,34.3215648 C411.136627,43.8729352 410.891619,53.0776563 408.588544,58.3341326 C404.848011,66.8714238 398.591641,71.1246783 389.819433,71.0938959 Z" id="形状结合" fill="url(#linearGradient-13)"></path>
                </g>
            </g>
        </g>
    </g>
</svg>