<?xml version="1.0" encoding="UTF-8"?>
<svg width="44px" height="44px" viewBox="0 0 44 44" version="1.1" xmlns="http://www.w3.org/2000/svg" xmlns:xlink="http://www.w3.org/1999/xlink">
    <title>菜单</title>
    <g id="页面-1" stroke="none" stroke-width="1" fill="none" fill-rule="evenodd">
        <g id="2合营模式" transform="translate(-30.000000, -117.000000)">
            <g id="菜单" transform="translate(30.000000, 117.000000)">
                <rect id="矩形" fill="#D8D8D8" opacity="0" x="0" y="0" width="44" height="44"></rect>
                <g id="编组" transform="translate(14.500000, 22.000000) scale(-1, 1) translate(-14.500000, -22.000000) translate(5.000000, 7.000000)" fill="#121A23" fill-rule="nonzero">
                    <path d="M14.0857969,14.9991608 L0.596302671,26.9267832 C-0.198767557,27.6309995 -0.198767557,28.7707151 0.596302671,29.4726815 C1.3913332,30.1757728 2.68123455,30.1757728 3.47626508,29.4726815 L18.40459,16.2718378 C19.19847,15.5687828 19.19847,14.4284503 18.40459,13.7276088 L3.47626508,0.527309415 C3.07751996,0.17574562 2.55634652,0 2.03509372,0 C1.51380126,0 0.992627777,0.175781897 0.596302671,0.528434379 C-0.198767557,1.23152573 -0.198767557,2.36960833 0.596302671,3.07269964 L14.0857969,14.9991608" id="路径"></path>
                </g>
            </g>
        </g>
    </g>
</svg>