<?xml version="1.0" encoding="UTF-8"?>
<svg width="130px" height="56px" viewBox="0 0 130 56" version="1.1" xmlns="http://www.w3.org/2000/svg" xmlns:xlink="http://www.w3.org/1999/xlink">
    <title>编组 29</title>
    <defs>
        <path d="M15.3585714,0.574166667 C13.7939286,1.62654762 12.1194048,2.37404762 10.1740476,2.37404762 L10.1740476,2.37404762 C8.20392857,2.37404762 6.92095238,1.70392857 6.86214286,0.337380952 L6.86214286,0.337380952 L0.00464285714,0.611309524 C0.0030952381,0.611309524 0.0030952381,0.612857143 0.00154761905,0.612857143 L0.00154761905,0.612857143 C0,0.642261905 0,0.671666667 0,0.69952381 L0,0.69952381 L0,0.82952381 C0.030952381,4.55 3.06892857,7.49202381 7.91607143,7.49202381 L7.91607143,7.49202381 C11.0066667,7.49202381 12.61,7.40380952 15.5071429,6.30809524 L15.5071429,6.30809524 L15.6711905,6.24928571 L15.7903571,0 C15.7191667,0.2275 15.5705952,0.430238095 15.3585714,0.574166667" id="path-1"></path>
        <linearGradient x1="0%" y1="49.9926214%" x2="99.9988415%" y2="49.9926214%" id="linearGradient-3">
            <stop stop-color="#4D87FF" offset="0%"></stop>
            <stop stop-color="#2D5BC6" offset="100%"></stop>
        </linearGradient>
        <path d="M15.3588167,0.574166667 C13.7941739,1.62654762 12.11965,2.37404762 10.1758405,2.37404762 L10.1758405,2.37404762 C8.20417385,2.37404762 6.92119766,1.70392857 6.86238814,0.337380952 L6.86238814,0.337380952 L0.00488813968,0.611309524 C0.00488813968,0.611309524 0.00334052063,0.612857143 0.00179290159,0.612857143 L0.00179290159,0.612857143 C-0.0848737651,4.43547619 2.97631671,7.49202381 7.91631671,7.49202381 L7.91631671,7.49202381 C11.0069119,7.49202381 12.6102453,7.40380952 15.5089358,6.30809524 L15.5089358,6.30809524 L15.6714358,6.24928571 L15.7906024,0 C15.7209596,0.2275 15.5708405,0.430238095 15.3588167,0.574166667" id="path-4"></path>
        <linearGradient x1="0.00417214195%" y1="49.9926214%" x2="100.00146%" y2="49.9926214%" id="linearGradient-6">
            <stop stop-color="#4D87FF" offset="0%"></stop>
            <stop stop-color="#2D5BC6" offset="100%"></stop>
        </linearGradient>
        <path d="M0.92702381,0 C0.414761905,0 0,0.383809524 0,0.857380952 L0,0.857380952 L0,13.7614286 C0,19.382381 2.32761905,22.827381 7.80464286,22.827381 L7.80464286,22.827381 C11.2682143,22.827381 13.9517857,22.5875 15.665,21.4902381 L15.665,21.4902381 L15.5767857,19.0836905 L15.2734524,14.6188095 C15.2394048,14.7163095 15.1883333,14.8091667 15.1186905,14.8896429 L15.1186905,14.8896429 C13.5757143,16.6570238 12.3530952,17.1925 10.6553571,17.1925 L10.6553571,17.1925 C7.99809524,17.1925 7.14535714,15.8646429 7.14535714,12.9117857 L7.14535714,12.9117857 L7.14535714,0.857380952 C7.14535714,0.383809524 6.73059524,0 6.21833333,0 L6.21833333,0 L0.92702381,0 Z" id="path-7"></path>
        <linearGradient x1="0.00330567082%" y1="49.9966231%" x2="99.9997609%" y2="49.9966231%" id="linearGradient-9">
            <stop stop-color="#4D87FF" offset="0%"></stop>
            <stop stop-color="#2D5BC6" offset="100%"></stop>
        </linearGradient>
        <path d="M9.43119048,0.0789285714 C9.43119048,3.12464286 7.56785714,4.75119048 3.64619048,4.75119048 L3.64619048,4.75119048 L1.06321429,4.75119048 C0.475119048,4.75119048 0,4.85178571 0,4.30702381 L0,4.30702381 L0,10.4557143 C0,9.91095238 0.475119048,10.01 1.06321429,10.01 L1.06321429,10.01 L4.06095238,10.01 C10.7729762,10.01 16.4558333,6.97047619 16.4496479,0.0680952381 L16.4496479,0.0680952381 L9.42809524,0 C9.42964286,0.0278571429 9.43119048,0.0510714286 9.43119048,0.0789285714" id="path-10"></path>
        <linearGradient x1="-0.00461755433%" y1="50.0013943%" x2="99.997843%" y2="50.0013943%" id="linearGradient-12">
            <stop stop-color="#4D87FF" offset="0%"></stop>
            <stop stop-color="#2D5BC6" offset="100%"></stop>
        </linearGradient>
        <polygon id="path-13" points="0 0 23.607381 0 23.607381 29.2777024 0 29.2777024"></polygon>
        <path d="M1.05661331,0 C0.293637115,0 -0.21862479,0.725833333 0.0924466385,1.3727381 L0.0924466385,1.3727381 L9.66756569,21.3525 C9.77899426,21.5846429 9.78673235,21.8539286 9.69077997,22.0907143 L9.69077997,22.0907143 L9.37197045,22.8815476 L13.0088752,15.9621429 L12.9547085,15.9621429 C12.19328,13.6221429 11.4194704,11.6705952 10.56828,9.57511905 L10.56828,9.57511905 L7.09077997,0.620595238 C6.93137521,0.246071429 6.54137521,0 6.10649426,0 L6.10649426,0 L1.05661331,0 Z" id="path-15"></path>
        <linearGradient x1="0.0031103886%" y1="49.9948827%" x2="99.9972816%" y2="49.9948827%" id="linearGradient-17">
            <stop stop-color="#4D87FF" offset="0%"></stop>
            <stop stop-color="#3362CF" offset="100%"></stop>
        </linearGradient>
        <polygon id="path-18" points="2.19929894e-14 0 23.7460525 0 23.7460525 30.9986548 2.19929894e-14 30.9986548"></polygon>
    </defs>
    <g id="页面-1" stroke="none" stroke-width="1" fill="none" fill-rule="evenodd">
        <g id="1首页_未登录" transform="translate(-53, -3914)">
            <g id="编组-33备份-4" transform="translate(30, 3822)">
                <g id="编组-29" transform="translate(23, 92)">
                    <rect id="矩形" fill="#D8D8D8" opacity="0" x="0" y="0" width="130" height="55.7142857"></rect>
                    <g id="编组" transform="translate(0.7738, 9.2857)">
                        <path d="M12.1107381,6.45032143 C8.42895238,6.45032143 4.94990476,7.46555952 1.8577619,8.95436905 C1.29597619,9.22520238 1.08240476,9.87055952 1.3857381,10.3859167 L2.87454762,13.22425 C3.16085714,13.71175 3.81085714,13.9052024 4.35252381,13.6684167 C6.65538095,12.6578214 8.68740476,11.709131 10.7302619,11.709131 C13.0439524,11.709131 14.5343095,12.334369 15.2849048,13.4207976 C15.7399048,14.0800833 15.2493095,14.9513929 14.4074048,15.0148452 C4.20240476,15.7747262 0.0965714286,18.2632976 0.00371428571,22.9371071 L6.8627619,22.6647262 C6.86121429,22.6306786 6.85038095,22.6028214 6.85038095,22.5703214 C6.85038095,20.7797262 8.53264286,19.4178214 14.6240714,18.9875833 C15.2787143,18.9411548 15.8358571,19.4240119 15.8358571,20.0306786 L15.8358571,22.044131 C15.8358571,22.141631 15.8172857,22.2344881 15.7909762,22.32425 L15.5495476,26.7674643 L15.5835952,28.4265119 C15.6841905,28.9202024 16.1515714,29.2777024 16.6947857,29.2777024 L21.8499048,29.2777024 C22.4735952,29.2777024 22.9796667,28.8103214 22.9796667,28.2315119 L22.9796667,16.5377024 C22.9796667,9.70805952 18.8800238,6.45032143 12.1107381,6.45032143" id="Fill-1" fill="#4D88FF"></path>
                        <g transform="translate(0, 22.326)">
                            <mask id="mask-2" fill="white">
                                <use xlink:href="#path-1"></use>
                            </mask>
                            <g id="Clip-4"></g>
                            <path d="M15.3585714,0.574166667 C13.7939286,1.62654762 12.1194048,2.37404762 10.1740476,2.37404762 L10.1740476,2.37404762 C8.20392857,2.37404762 6.92095238,1.70392857 6.86214286,0.337380952 L6.86214286,0.337380952 L0.00464285714,0.611309524 C0.0030952381,0.611309524 0.0030952381,0.612857143 0.00154761905,0.612857143 L0.00154761905,0.612857143 C0,0.642261905 0,0.671666667 0,0.69952381 L0,0.69952381 L0,0.82952381 C0.030952381,4.55 3.06892857,7.49202381 7.91607143,7.49202381 L7.91607143,7.49202381 C11.0066667,7.49202381 12.61,7.40380952 15.5071429,6.30809524 L15.5071429,6.30809524 L15.6711905,6.24928571 L15.7903571,0 C15.7191667,0.2275 15.5705952,0.430238095 15.3585714,0.574166667" id="Fill-3" fill="url(#linearGradient-3)" mask="url(#mask-2)"></path>
                        </g>
                        <path d="M90.792,6.45032143 C87.1102143,6.45032143 83.6311667,7.46555952 80.5390238,8.95436905 C79.9772381,9.22520238 79.7636667,9.87055952 80.067,10.3859167 L81.5558095,13.22425 C81.842119,13.71175 82.492119,13.9052024 83.0337857,13.6684167 C85.3366429,12.6578214 87.3686667,11.709131 89.4115238,11.709131 C91.7252143,11.709131 93.2155714,12.334369 93.9661667,13.4207976 C94.4211667,14.0800833 93.9305714,14.9513929 93.0886667,15.0148452 C82.8836667,15.7747262 78.7778333,18.2632976 78.6849762,22.9371071 L85.5440238,22.6647262 C85.5424762,22.6306786 85.5316429,22.6028214 85.5316429,22.5703214 C85.5316429,20.7797262 87.2139048,19.4178214 93.3053333,18.9875833 C93.9599762,18.9411548 94.517119,19.4240119 94.517119,20.0306786 L94.517119,22.044131 C94.517119,22.141631 94.4985476,22.2344881 94.4722381,22.32425 L94.2308095,26.7674643 L94.2648571,28.4265119 C94.3654524,28.9202024 94.8328333,29.2777024 95.3760476,29.2777024 L100.531167,29.2777024 C101.154857,29.2777024 101.660929,28.8103214 101.660929,28.2315119 L101.660929,16.5377024 C101.660929,9.70805952 97.5612857,6.45032143 90.792,6.45032143" id="Fill-5" fill="#4D88FF"></path>
                        <g transform="translate(78.6807, 22.326)">
                            <mask id="mask-5" fill="white">
                                <use xlink:href="#path-4"></use>
                            </mask>
                            <g id="Clip-8"></g>
                            <path d="M15.3588167,0.574166667 C13.7941739,1.62654762 12.11965,2.37404762 10.1758405,2.37404762 L10.1758405,2.37404762 C8.20417385,2.37404762 6.92119766,1.70392857 6.86238814,0.337380952 L6.86238814,0.337380952 L0.00488813968,0.611309524 C0.00488813968,0.611309524 0.00334052063,0.612857143 0.00179290159,0.612857143 L0.00179290159,0.612857143 C-0.0848737651,4.43547619 2.97631671,7.49202381 7.91631671,7.49202381 L7.91631671,7.49202381 C11.0069119,7.49202381 12.6102453,7.40380952 15.5089358,6.30809524 L15.5089358,6.30809524 L15.6714358,6.24928571 L15.7906024,0 C15.7209596,0.2275 15.5708405,0.430238095 15.3588167,0.574166667" id="Fill-7" fill="url(#linearGradient-6)" mask="url(#mask-5)"></path>
                        </g>
                        <path d="M48.421131,6.98920238 L43.131369,6.98920238 C42.6191071,6.98920238 42.2043452,7.3730119 42.2043452,7.84813095 L42.2043452,21.343369 C42.2043452,21.4346786 42.1857738,21.5228929 42.156369,21.6080119 L42.2677976,26.0759881 L42.4581548,26.0759881 L42.5494643,28.5459881 C42.6175595,28.9669405 43.5476786,29.2780119 44.0073214,29.2780119 L48.421131,29.2780119 C48.9333929,29.2780119 49.3481548,28.8942024 49.3481548,28.420631 L49.3481548,7.84813095 C49.3481548,7.3730119 48.9333929,6.98920238 48.421131,6.98920238" id="Fill-9" fill="#4D88FF"></path>
                        <g transform="translate(26.8821, 6.9906)">
                            <mask id="mask-8" fill="white">
                                <use xlink:href="#path-7"></use>
                            </mask>
                            <g id="Clip-12"></g>
                            <path d="M0.92702381,0 C0.414761905,0 0,0.383809524 0,0.857380952 L0,0.857380952 L0,13.7614286 C0,19.382381 2.32761905,22.827381 7.80464286,22.827381 L7.80464286,22.827381 C11.2682143,22.827381 13.9517857,22.5875 15.665,21.4902381 L15.665,21.4902381 L15.5767857,19.0836905 L15.2734524,14.6188095 C15.2394048,14.7163095 15.1883333,14.8091667 15.1186905,14.8896429 L15.1186905,14.8896429 C13.5757143,16.6570238 12.3530952,17.1925 10.6553571,17.1925 L10.6553571,17.1925 C7.99809524,17.1925 7.14535714,15.8646429 7.14535714,12.9117857 L7.14535714,12.9117857 L7.14535714,0.857380952 C7.14535714,0.383809524 6.73059524,0 6.21833333,0 L6.21833333,0 L0.92702381,0 Z" id="Fill-11" fill="url(#linearGradient-9)" mask="url(#mask-8)"></path>
                        </g>
                        <g transform="translate(60.0956, 9.3368)">
                            <mask id="mask-11" fill="white">
                                <use xlink:href="#path-10"></use>
                            </mask>
                            <g id="Clip-14"></g>
                            <path d="M9.43119048,0.0789285714 C9.43119048,3.12464286 7.56785714,4.75119048 3.64619048,4.75119048 L3.64619048,4.75119048 L1.06321429,4.75119048 C0.475119048,4.75119048 0,4.85178571 0,4.30702381 L0,4.30702381 L0,10.4557143 C0,9.91095238 0.475119048,10.01 1.06321429,10.01 L1.06321429,10.01 L4.06095238,10.01 C10.7729762,10.01 16.4558333,6.97047619 16.4496479,0.0680952381 L16.4496479,0.0680952381 L9.42809524,0 C9.42964286,0.0278571429 9.43119048,0.0510714286 9.43119048,0.0789285714" id="Fill-13" fill="url(#linearGradient-12)" mask="url(#mask-11)"></path>
                        </g>
                        <g transform="translate(52.9371, 0)">
                            <mask id="mask-14" fill="white">
                                <use xlink:href="#path-13"></use>
                            </mask>
                            <g id="Clip-16"></g>
                            <path d="M7.1577381,7.76889286 L7.1577381,6.2444881 C7.1577381,5.70127381 7.63440476,5.25865476 8.2225,5.25865476 L10.8039286,5.25865476 C14.5383333,5.25865476 16.5502381,6.34353571 16.5858333,9.33663095 L23.607381,9.40472619 C23.6011905,2.2965119 18.0777381,-0.000154761905 11.2202381,-0.000154761905 L1.0647619,-0.000154761905 C0.476666667,-0.000154761905 0,0.440916667 0,0.985678571 L0,28.2934167 C0,28.836631 0.476666667,29.2777024 1.0647619,29.2777024 L6.09297619,29.2777024 C6.68107143,29.2777024 7.1577381,28.836631 7.1577381,28.2934167 L7.1577381,25.3931786 L7.1577381,20.3340119 L7.1577381,13.1019881 L7.1577381,7.76889286 Z" id="Fill-15" fill="#4D88FF" mask="url(#mask-14)"></path>
                        </g>
                        <g transform="translate(103.7977, 6.9906)">
                            <mask id="mask-16" fill="white">
                                <use xlink:href="#path-15"></use>
                            </mask>
                            <g id="Clip-18"></g>
                            <path d="M1.05661331,0 C0.293637115,0 -0.21862479,0.725833333 0.0924466385,1.3727381 L0.0924466385,1.3727381 L9.66756569,21.3525 C9.77899426,21.5846429 9.78673235,21.8539286 9.69077997,22.0907143 L9.69077997,22.0907143 L9.37197045,22.8815476 L13.0088752,15.9621429 L12.9547085,15.9621429 C12.19328,13.6221429 11.4194704,11.6705952 10.56828,9.57511905 L10.56828,9.57511905 L7.09077997,0.620595238 C6.93137521,0.246071429 6.54137521,0 6.10649426,0 L6.10649426,0 L1.05661331,0 Z" id="Fill-17" fill="url(#linearGradient-17)" mask="url(#mask-16)"></path>
                        </g>
                        <g transform="translate(105.1945, 6.9892)">
                            <mask id="mask-19" fill="white">
                                <use xlink:href="#path-18"></use>
                            </mask>
                            <g id="Clip-20"></g>
                            <path d="M22.6897685,0 L17.9308399,0 C17.4789351,0 17.0765542,0.266190476 16.931078,0.662380952 L13.9596494,9.57666667 C13.2183399,11.7479762 12.401197,13.7335714 11.751197,15.9636905 L11.6119113,15.9636905 L7.97500657,22.8815476 C7.19655419,24.6055952 5.08560181,25.4861905 2.30917324,25.4861905 C2.0213161,25.4861905 1.721078,25.4614286 1.41619705,25.415 C0.866792286,25.3314286 0.34060181,25.6502381 0.213697048,26.1516667 L0.0279827621,29.595119 C-0.108207714,30.1367857 0.266316095,30.6769048 0.855958953,30.7805952 C1.64060181,30.9167857 2.5088161,30.9988095 3.45286371,30.9988095 C9.53964943,30.9988095 12.4027447,28.1078571 14.7458399,22.5302381 L23.6725066,1.3325 C23.9433399,0.691785714 23.4326256,0 22.6897685,0" id="Fill-19" fill="#4D88FF" mask="url(#mask-19)"></path>
                        </g>
                    </g>
                </g>
            </g>
        </g>
    </g>
</svg>