<?xml version="1.0" encoding="UTF-8"?>
<svg width="40px" height="40px" viewBox="0 0 40 40" version="1.1" xmlns="http://www.w3.org/2000/svg" xmlns:xlink="http://www.w3.org/1999/xlink">
    <title>icon_消息</title>
    <g id="页面-1" stroke="none" stroke-width="1" fill="none" fill-rule="evenodd">
        <g id="1首页_已登录备份-3" transform="translate(-569, -140)" fill="#576673">
            <g id="编组-2备份" transform="translate(551, 121)">
                <g id="icon_消息" transform="translate(18, 19)">
                    <rect id="矩形" opacity="0" x="0" y="0" width="40" height="40"></rect>
                    <g id="编组" transform="translate(2, 0)" fill-rule="nonzero">
                        <path d="M17.9439619,40 C14.7673327,40 11.8904788,38.1253932 10.5664339,35.2642696 L3.42036644,35.2642696 C2.15830717,35.2621676 0.999598261,34.5663854 0.404619566,33.4533722 C-0.190359129,32.3403591 -0.125251312,30.9903664 0.574074287,29.9397753 L2.68014171,26.7842696 L2.68014171,17.6319101 C2.67132632,11.2083287 6.69419622,5.46997646 12.7358721,3.28808988 C13.6958721,1.30202246 15.728681,0 17.9439619,0 C20.1592428,0 22.1916024,1.30337078 23.1516024,3.28764047 C29.1937879,5.46928241 33.2171002,11.2079325 33.2082316,17.6319101 L33.2082316,26.7838202 L35.3138496,29.9397753 C36.0145209,30.9907551 36.0799808,32.3420406 35.4841766,33.4558251 C34.8883723,34.5696097 33.7279913,35.2651478 32.4648608,35.265618 L25.3187934,35.265618 C23.9965462,38.1249438 21.1201417,40 17.9439619,40 Z M17.9439619,2.11235953 C16.4059844,2.11235953 15.0576698,3.05258426 14.5080069,4.50786516 L14.3282316,4.98067414 L13.8482316,5.13797754 C8.44063086,6.90011358 4.78352501,11.9448981 4.79070351,17.6323595 L4.79070351,27.4229214 L2.32957991,31.1083146 C2.06185242,31.511317 2.03721926,32.0288342 2.26545828,32.4554439 C2.4936973,32.8820537 2.93788827,33.1487469 3.42171476,33.1496629 L12.0194676,33.1496629 L12.2693552,33.8521348 C13.1232878,36.2642697 15.405535,37.8849438 17.9430631,37.8849438 C20.4805912,37.8849438 22.7596923,36.2642697 23.6163215,33.8521348 L23.8657597,33.1496629 L32.4635125,33.1496629 C32.9476902,33.1495293 33.3925185,32.8829943 33.6209958,32.4561147 C33.8494732,32.0292351 33.8245321,31.5112669 33.5560968,31.1083146 L31.0958721,27.4229214 L31.0958721,17.6319101 C31.1029873,11.9443284 27.445673,6.89950666 22.0378945,5.13752809 L21.5574451,4.98022473 L21.3776698,4.50696629 C20.8378945,3.0741573 19.4581192,2.11191012 17.9439619,2.11191012 L17.9439619,2.11235953 Z" id="形状"></path>
                        <polygon id="路径" points="10.9740743 33.1555056 25.1821642 33.1555056 25.1821642 35.2674157 10.9740743 35.2674157"></polygon>
                    </g>
                </g>
            </g>
        </g>
    </g>
</svg>