<?xml version="1.0" encoding="UTF-8"?>
<svg width="80px" height="80px" viewBox="0 0 80 80" version="1.1" xmlns="http://www.w3.org/2000/svg" xmlns:xlink="http://www.w3.org/1999/xlink">
    <title>编组</title>
    <g id="页面-1" stroke="none" stroke-width="1" fill="none" fill-rule="evenodd">
        <g id="1首页_未登录" transform="translate(-603, -3340)" fill-rule="nonzero">
            <g id="编组-33备份-2" transform="translate(30, 3248)">
                <g id="编组" transform="translate(573, 92)">
                    <path d="M80,40 C80,62.092 62.0916,80 40,80 C17.9084,80 0,62.092 0,40 C0,17.9084 17.9084,0 40,0 C62.0916,0 80,17.9084 80,40 Z" id="路径" fill="#C5CAD0"></path>
                    <path d="M24.676,30.0736 L27.8048,39.722 L19.0632,55.0928 L24.6764,30.074 L24.676,30.0736 Z M52.1948,39.722 L55.324,30.074 L60.9368,55.0924 L52.1948,39.722 L52.1948,39.722 Z M51.4716,41.9524 L61.882,60.2564 L41.5408,72.5748 L51.4716,41.9524 Z M38.4596,72.5748 L18.1172,60.2568 L28.5276,41.9528 L38.4588,72.5752 L38.4596,72.5748 Z M40,21.7824 L50.3124,39.9148 L40.0004,71.7136 L29.6872,39.9144 L40,21.7824 L40,21.7824 Z M39.1344,19.8028 L28.964,37.6836 L25.4832,26.95 L39.1344,8.14599998 L39.1344,19.8024 L39.1344,19.8028 Z M40.8656,8.14599998 L54.5168,26.95 L51.0356,37.684 L40.8656,19.8024 L40.8656,8.14639998 L40.8656,8.14599998 Z M63.8956,60.3708 L56.3208,26.6088 C56.294986,26.4938442 56.2459865,26.3853647 56.1768,26.29 L40.7008,4.97200003 C40.5377726,4.74773464 40.2772596,4.61503928 40,4.61503928 C39.7227404,4.61503928 39.4622274,4.74773464 39.2992,4.97200003 L23.8232,26.2896 C23.754033,26.384976 23.7050354,26.4934513 23.6792,26.6084 L16.104,60.3708 C16.0227714,60.7338655 16.1822895,61.1082743 16.5004,61.3012 L39.5512,75.2612 C39.5616,75.2668 39.5723999,75.2712001 39.5832,75.2772 C39.6211053,75.2984435 39.6607078,75.3165054 39.7016,75.3312 L39.7468,75.3472 C39.7747999,75.3552 39.8016,75.3612 39.8296,75.3672 C39.8436,75.3696 39.8576,75.3736 39.8716,75.3756 C39.9565905,75.3883581 40.0430095,75.3883581 40.128,75.3756 C40.1424,75.3736 40.156,75.3696 40.17,75.3668 C40.1979234,75.3615515 40.2255596,75.3548761 40.2528,75.3468 C40.2688,75.3420001 40.2836,75.3364 40.2992,75.3308 C40.3236,75.3216 40.348,75.3116 40.372,75.3 C40.3872,75.2928 40.402,75.2848 40.4172,75.2768 C40.4272001,75.2712001 40.438,75.2668 40.4484,75.2608 L63.4996,61.3012 C63.8177541,61.1083298 63.977163,60.7337992 63.8956,60.3708 L63.8956,60.3708 Z" id="形状" fill="#FFFFFF"></path>
                </g>
            </g>
        </g>
    </g>
</svg>