<?xml version="1.0" encoding="UTF-8"?>
<svg width="80px" height="80px" viewBox="0 0 80 80" version="1.1" xmlns="http://www.w3.org/2000/svg" xmlns:xlink="http://www.w3.org/1999/xlink">
    <title>编组</title>
    <g id="页面-1" stroke="none" stroke-width="1" fill="none" fill-rule="evenodd">
        <g id="1首页_未登录" transform="translate(-53, -3340)">
            <g id="编组-33备份-2" transform="translate(30, 3248)">
                <g id="编组" transform="translate(23, 92)">
                    <circle id="椭圆形" fill="#C5CAD0" cx="40" cy="40" r="40"></circle>
                    <g id="编组-26" transform="translate(20, 13.3333)" fill="#FFFFFF" fill-rule="nonzero">
                        <path d="M19.2414296,0 L23.6177972,1.0940919 L21.7213713,8.73814734 L25.1932896,9.59883297 L27.1043034,1.96936543 L31.480671,3.04886944 L29.5696572,10.7512764 C31.2746327,11.2722543 32.9143056,11.986858 34.456601,12.8811087 C34.5385415,12.9344942 34.6232556,12.9897023 34.7102971,13.046859 L34.9779574,13.2243006 C36.9398314,14.5396642 39.7712494,16.8139423 39.0371991,21.2983224 C38.2202772,26.214442 32.968636,27.8482859 32.968636,27.8482859 C36.7288885,30.0236296 38.5034655,34.4962881 37.2574763,38.6579139 C35.3610503,46.2582057 26.7687819,46.1706783 24.5076586,45.6017505 L21.0940919,44.7410649 L19.2706054,52.0350109 L14.7483589,50.8971554 L16.5718454,43.6032093 L13.654267,42.8738147 L11.8307805,50.1677608 L7.08971554,48.9715536 L8.91320204,41.6776076 L0,39.460248 L1.25455872,34.4274252 L6.08315098,35.6236324 C6.50619985,35.7403355 6.54996353,35.6236324 6.62290299,35.2443472 C6.65343579,35.0855766 7.68089992,30.9697556 8.86530494,26.2258142 L9.06401491,25.4299122 C9.16395243,25.0296241 9.26465576,24.6262583 9.36563878,24.2217413 L9.66894079,23.0066633 L9.87063413,22.1984821 C11.2115012,16.8251098 12.4580598,11.8178888 12.4580598,11.7432531 C12.4580598,11.5827863 12.5747629,11.3056163 12.0641867,11.1743253 L7.00218818,9.87600292 L8.14004376,5.33916849 L17.3450036,7.64405543 L19.2414296,0 Z M17.1699489,27.3814734 L14.7483589,37.0824216 L22.9029905,39.051787 C25.4943075,39.4395051 27.9780486,37.8685389 28.7381473,35.3610503 C29.1249219,34.1577247 29.0022932,32.8485255 28.3987831,31.7379569 C27.7952731,30.6273882 26.7634845,29.8122486 25.543399,29.4821298 L17.1699489,27.3814734 Z M20.5543399,13.3187454 L18.249453,22.567469 L24.1575492,24.0262582 C25.407436,24.388886 26.7505612,24.2348265 27.8858782,23.5986102 C29.0211952,22.9623939 29.8537506,21.8972315 30.1969365,20.6418673 C31.1597374,16.761488 26.8708972,14.8942378 25.95186,14.6754194 L20.5543399,13.3187454 Z" id="形状结合"></path>
                    </g>
                </g>
            </g>
        </g>
    </g>
</svg>