<?xml version="1.0" encoding="UTF-8"?>
<svg width="80px" height="80px" viewBox="0 0 80 80" version="1.1" xmlns="http://www.w3.org/2000/svg" xmlns:xlink="http://www.w3.org/1999/xlink">
    <title>编组</title>
    <g id="页面-1" stroke="none" stroke-width="1" fill="none" fill-rule="evenodd">
        <g id="1首页_未登录" transform="translate(-53, -3450)" fill-rule="nonzero">
            <g id="编组-33备份-2" transform="translate(30, 3248)">
                <g id="编组" transform="translate(23, 202)">
                    <path d="M40,80 C62.0912727,80 80,62.0912727 80,40 C80,17.9087273 62.0912727,0 40,0 C17.9087273,0 0,17.9087273 0,40 C0,62.0912727 17.9087273,80 40,80 Z" id="路径" fill="#C5CAD0"></path>
                    <path d="M54.8298182,24.7818182 L18.7498182,18.1418182 L37.7374545,65.9221818 L64.1949091,33.6872727 L54.8298182,24.7818182 Z M54.2501818,27.7072727 L59.7701818,32.9545455 L44.6749091,35.6872727 L54.2501818,27.7072727 L54.2501818,27.7072727 Z M41.3949091,35.1396363 L25.4850909,21.9447273 L51.4898182,26.7298182 L41.3949091,35.1396363 Z M40.2625455,37.4745455 L37.6676363,58.9247273 L23.68,23.7174545 L40.2625455,37.472 L40.2625455,37.4745455 Z M42.6625455,38.612 L59.38,35.5872727 L40.2050909,58.9447273 L42.6625455,38.612 Z" id="形状" fill="#FFFFFF"></path>
                </g>
            </g>
        </g>
    </g>
</svg>