<?xml version="1.0" encoding="UTF-8"?>
<svg width="80px" height="80px" viewBox="0 0 80 80" version="1.1" xmlns="http://www.w3.org/2000/svg" xmlns:xlink="http://www.w3.org/1999/xlink">
    <title>编组</title>
    <g id="页面-1" stroke="none" stroke-width="1" fill="none" fill-rule="evenodd">
        <g id="1首页_未登录" transform="translate(-163, -3450)" fill-rule="nonzero">
            <g id="编组-33备份-2" transform="translate(30, 3248)">
                <g id="编组" transform="translate(133, 202)">
                    <path d="M80,40 C80,62.0912001 62.0916,80 40,80 C17.9088,80 0,62.0912001 0,40 C0,17.9084 17.9088,0 40,0 C62.0916,0 80,17.9084 80,40" id="路径" fill="#C5CAD0"></path>
                    <path d="M44.1264,53.6324001 L35.286,53.6324001 L35.286,42.2332001 L44.0524,42.2332001 L44.0524,37.6332 L35.286,37.6332 L35.286,26.4344001 L43.5936,26.4344001 C43.5936,26.4344001 53.8188,26.4344001 53.8188,39.0892001 C53.8188,54.0100001 44.1264,53.6324001 44.1264,53.6324001 M42.7524,18.4332001 L27.1524,18.4332001 L27.1524,37.6332 L21.9524,37.6332 L21.9524,42.2332001 L27.1524,42.2332001 L27.1524,61.6332001 L43.7524,61.6332001 C43.7524,61.6332001 61.9524,62.2332001 61.9524,38.5332001 C61.9524,18.4332001 42.7524,18.4332001 42.7524,18.4332001" id="形状" fill="#FFFFFF"></path>
                </g>
            </g>
        </g>
    </g>
</svg>