<?xml version="1.0" encoding="UTF-8"?>
<svg width="80px" height="80px" viewBox="0 0 80 80" version="1.1" xmlns="http://www.w3.org/2000/svg" xmlns:xlink="http://www.w3.org/1999/xlink">
    <title>编组</title>
    <g id="页面-1" stroke="none" stroke-width="1" fill="none" fill-rule="evenodd">
        <g id="1首页_未登录" transform="translate(-383, -3340)" fill-rule="nonzero">
            <g id="编组-33备份-2" transform="translate(30, 3248)">
                <g id="编组" transform="translate(353, 92)">
                    <path d="M40,0 C62.09375,0 80,17.90625 80,40 C80,62.09375 62.09375,80 40,80 C17.90625,80 0,62.09375 0,40 C0,17.90625 17.90625,0 40,0 Z" id="路径" fill="#C5CAD0"></path>
                    <path d="M37.234375,19.421875 L33.515625,13.046875 L28.6328125,15.8984375 L32.3203125,22.2265625 L27.9375,24.7734375 L24.25,18.4453125 L19.359375,21.296875 L23.046875,27.625 L16.34375,31.5234375 L18.28125,34.8359375 L23.125,32.015625 L38.484375,58.375 L33.640625,61.1953125 L35.578125,64.5078125 L42.28125,60.609375 L45.953125,66.9375 L50.84375,64.0859375 L47.15625,57.7578125 L51.265625,55.3671875 L54.953125,61.6953125 L59.84375,58.84375 L56.15625,52.515625 L56.375,52.3828125 C63.9453125,47.96875 65.0078125,41.625 62.2890625,36.953125 C59.9375,32.9140625 54.9296875,31.0625 48.4296875,33.8828125 C52.84375,30.0859375 53.7890625,25.546875 51.703125,21.984375 C49.3828125,18 44.0390625,16.0859375 37.234375,19.421875 L37.234375,19.421875 Z M54.671875,41.2890625 C55.875,43.3515625 56.875,47.671875 52.546875,50.1953125 L45.234375,54.453125 L38.28125,42.5078125 L46.109375,37.9453125 C47.515625,37.140625 51.9453125,36.625 54.671875,41.2890625 L54.671875,41.2890625 Z M44.3984375,26.265625 C46.46875,29.828125 46.2421875,32.734375 42.0703125,35.1640625 L36.046875,38.671875 L29.875,28.078125 L37.0859375,23.875 C38.0078125,23.34375 41.9453125,22.0546875 44.3984375,26.265625 L44.3984375,26.265625 Z" id="形状" fill="#FFFFFF"></path>
                </g>
            </g>
        </g>
    </g>
</svg>