<?xml version="1.0" encoding="UTF-8"?>
<svg width="80px" height="80px" viewBox="0 0 80 80" version="1.1" xmlns="http://www.w3.org/2000/svg" xmlns:xlink="http://www.w3.org/1999/xlink">
    <title>编组</title>
    <g id="页面-1" stroke="none" stroke-width="1" fill="none" fill-rule="evenodd">
        <g id="1首页_未登录" transform="translate(-163, -3340)" fill-rule="nonzero">
            <g id="编组-33备份-2" transform="translate(30, 3248)">
                <g id="编组" transform="translate(133, 92)">
                    <path d="M40,0 C62.09375,0 80,17.90625 80,40 C80,62.09375 62.09375,80 40,80 C17.90625,80 0,62.09375 0,40 C0,17.90625 17.9140625,0 40,0 Z" id="路径" fill="#C5CAD0"></path>
                    <path d="M40.0078125,11.4765625 L40.0078125,51.3359375 L57.5234375,40.8359375 L40.0078125,11.4765625 Z M40.0078125,68.5234375 L57.5234375,43.375 L40.0078125,53.96875 L40.0078125,68.5234375 Z M40.0078125,11.4765625 L40.0078125,51.3359375 L22.484375,40.8359375 L40.0078125,11.4765625 Z" id="形状" fill="#FFFFFF"></path>
                    <polygon id="路径" fill="#FFFFFF" points="40.0078125 53.96875 40.0078125 68.5234375 22.484375 43.375"></polygon>
                </g>
            </g>
        </g>
    </g>
</svg>