<?xml version="1.0" encoding="UTF-8"?>
<svg width="80px" height="80px" viewBox="0 0 80 80" version="1.1" xmlns="http://www.w3.org/2000/svg" xmlns:xlink="http://www.w3.org/1999/xlink">
    <title>编组</title>
    <g id="页面-1" stroke="none" stroke-width="1" fill="none" fill-rule="evenodd">
        <g id="1首页_未登录" transform="translate(-493, -3340)" fill-rule="nonzero">
            <g id="编组-33备份-2" transform="translate(30, 3248)">
                <g id="编组" transform="translate(463, 92)">
                    <path d="M80,40 C80,62.092 62.092,80 40,80 C17.9088001,80 0,62.092 0,40 C0,17.9084 17.9088,0 40,0 C62.092,0 80,17.9084 80,40" id="路径" fill="#C5CAD0"></path>
                    <polygon id="路径" fill="#FFFFFF" points="58.7732 20.1704 20.8972 20.1704 20.8972 29.3144 35.2632 29.3144 35.2632 42.7544 44.4072 42.7544 44.4072 29.3144 58.7732 29.3144"></polygon>
                    <path d="M39.922,44.186 C28.038,44.186 18.4032,42.3051999 18.4032,39.9848 C18.4032,37.6648 28.0376,35.7836 39.922,35.7836 C51.806,35.7836 61.4404,37.6648 61.4404,39.9848 C61.4404,42.3052 51.806,44.186 39.922,44.186 M64.084,40.6852 C64.084,37.6932 53.2664,35.268 39.922,35.268 C26.578,35.268 15.7596,37.6932 15.7596,40.6852 C15.7596,43.32 24.148,45.5152 35.2636,46.0016 L35.2636,65.2952 L44.4068,65.2952 L44.4068,46.0092 C55.6080001,45.538 64.084,43.3336 64.084,40.6852" id="形状" fill="#FFFFFF"></path>
                </g>
            </g>
        </g>
    </g>
</svg>