<?xml version="1.0" encoding="UTF-8"?>
<svg width="30px" height="30px" viewBox="0 0 30 30" version="1.1" xmlns="http://www.w3.org/2000/svg" xmlns:xlink="http://www.w3.org/1999/xlink">
    <title>编组备份</title>
    <g id="页面-1" stroke="none" stroke-width="1" fill="none" fill-rule="evenodd">
        <g id="1首页_已登录备份-3" transform="translate(-54, -580)" fill="#53585E" fill-rule="nonzero" stroke="#53585E" stroke-width="0.5">
            <g id="编组-4" transform="translate(15, 555)">
                <g id="编组备份" transform="translate(40, 26)">
                    <path d="M27.7314228,26.322075 L22.9695621,21.2314379 C24.8996684,18.909078 25.961077,16.0141086 25.961077,12.9675075 C25.961077,5.81787088 20.1378077,0 12.97954,0 C5.82326927,0.000997577312 0,5.81787088 0,12.9685051 C0,20.1181417 5.82326927,25.935015 12.9805385,25.935015 C14.8557271,25.9340174 16.6640159,25.5429671 18.3544814,24.773835 C18.8567284,24.5453898 19.0783961,23.9538264 18.8497389,23.4530426 C18.6210817,22.9492661 18.0269725,22.7268063 17.527721,22.9582443 C16.0968662,23.6086647 14.5671597,23.9388628 12.97954,23.9398603 C6.92361954,23.9398603 1.99700592,19.0178139 1.99700592,12.9685051 C1.99700592,6.91819866 6.92361954,1.9961522 12.97954,1.9961522 C19.036459,1.9961522 23.9640711,6.91819866 23.9640711,12.9685051 C23.9640711,15.8155907 22.8767014,18.5150349 20.9036595,20.5660539 C20.5212329,20.9630896 20.5342134,21.5945561 20.9306191,21.9766282 C20.9605742,22.0055579 20.9995158,22.0165313 21.0324664,22.0414707 C21.0604245,22.0813738 21.073405,22.1272624 21.1073541,22.1631751 L26.2716114,27.683768 C26.467318,27.8942568 26.7339183,28 27.0005186,28 C27.2451518,28 27.489785,27.9112156 27.6824961,27.7306541 C28.0858913,27.3555651 28.1078584,26.7250962 27.7314228,26.322075 Z" id="路径"></path>
                </g>
            </g>
        </g>
    </g>
</svg>