<?xml version="1.0" encoding="UTF-8"?>
<svg width="60px" height="60px" viewBox="0 0 60 60" version="1.1" xmlns="http://www.w3.org/2000/svg" xmlns:xlink="http://www.w3.org/1999/xlink">
    <title>icon-足球</title>
    <g id="页面-1" stroke="none" stroke-width="1" fill="none" fill-rule="evenodd">
        <g id="1首页_未登录" transform="translate(-39, -689)">
            <g id="编组-5备份-5" transform="translate(15, 665)">
                <g id="icon-足球" transform="translate(24, 24)">
                    <rect id="矩形" fill="#F7F7F7" opacity="0" x="0" y="0" width="60" height="60"></rect>
                    <g id="编组" transform="translate(9.4737, 9.4737)" fill="#0385F2" fill-rule="nonzero">
                        <path d="M8.35647964,41.5263158 C8.14922998,41.5263158 7.94291605,41.4619828 7.76876326,41.3353365 C7.4609423,41.111649 7.30668707,40.7325967 7.37100934,40.357436 L9.70192801,26.765102 L-0.171785804,17.1389495 C-0.444244283,16.8732435 -0.54230374,16.4759653 -0.42474076,16.1140062 C-0.307079259,15.752047 0.00571603857,15.4882129 0.382341143,15.4334363 L14.0274772,13.4503948 L20.1298181,1.08363827 C20.2982085,0.742368154 20.6457753,0.526315789 21.0263405,0.526315789 C21.4069056,0.526315789 21.7544232,0.742417399 21.9228628,1.08363827 L28.0251544,13.4503948 L41.670389,15.4334363 C42.0469155,15.4882129 42.3597109,15.752047 42.4773723,16.1140062 C42.5949353,16.4759653 42.4968759,16.8732928 42.2244174,17.1389495 L32.3505558,26.765102 L34.6814745,40.357436 C34.7457967,40.7325967 34.5915415,41.1116489 34.2837206,41.3353365 C33.9757026,41.5590241 33.5676059,41.5884321 33.2309237,41.4114918 L21.0263404,34.9939583 L8.82160941,41.4114918 C8.67533287,41.4883367 8.51566002,41.5263158 8.35647964,41.5263158 Z M2.67430205,17.1210683 L11.4740409,25.7000121 C11.7096101,25.9297587 11.8171258,26.2606843 11.7615703,26.5850584 L9.68414834,38.6986701 L20.5611614,32.9793414 C20.8522862,32.8262427 21.200444,32.8262427 21.4915687,32.9793414 L32.3684833,38.6986701 L30.2910613,26.5850584 C30.2355058,26.2606843 30.3430215,25.9297587 30.5785907,25.7000121 L39.3782803,17.1210683 L27.21758,15.3537343 C26.8918808,15.3063959 26.6104586,15.101821 26.4647731,14.8067564 L21.0263404,3.78537652 L15.5878093,14.8067564 C15.442173,15.101821 15.1607016,15.3063959 14.8351008,15.3537343 L2.67430205,17.1210683 Z" id="形状"></path>
                    </g>
                </g>
            </g>
        </g>
    </g>
</svg>