<?xml version="1.0" encoding="UTF-8"?>
<svg width="60px" height="60px" viewBox="0 0 60 60" version="1.1" xmlns="http://www.w3.org/2000/svg" xmlns:xlink="http://www.w3.org/1999/xlink">
    <title>icon-足球</title>
    <g id="页面-1" stroke="none" stroke-width="1" fill="none" fill-rule="evenodd">
        <g id="1首页_未登录" transform="translate(-654, -689)">
            <g id="编组-5备份-4" transform="translate(630, 665)">
                <g id="icon-足球" transform="translate(24, 24)">
                    <rect id="矩形" fill="#F7F7F7" opacity="0" x="0" y="0" width="60" height="60"></rect>
                    <g id="编组" transform="translate(9.4737, 9.4737)" fill="#9C6A37" fill-rule="nonzero">
                        <path d="M39.0104067,30.7417353 C39.1967703,30.3698532 39.383134,30.0909416 39.5694976,29.7190596 L39.8490431,29.1612364 C40.0354067,28.6963838 40.2217703,28.1385607 40.408134,27.6737081 L40.408134,27.5807376 C41.0604067,25.5353861 41.5263158,23.3040936 41.5263158,21.0728011 C41.5263158,11.5898079 35.0035885,3.50137248 26.1513158,1.27007996 L25.7785885,1.17710944 C24.2876794,0.712256833 22.7035885,0.526315789 21.0263158,0.526315789 C14.783134,0.526315789 9.19222488,3.31543144 5.46495215,7.68504595 L5.09222488,8.05692803 L4.99904306,8.14989856 C4.62631579,8.52178064 4.34677033,8.98663325 4.06722488,9.45148586 C3.78767943,9.91633847 3.41495215,10.3811911 3.1354067,10.9390142 L3.1354067,11.0319847 C2.01722488,12.9843657 1.27177033,15.2156582 0.805861244,17.4469507 L0.805861244,17.5399212 C0.712679426,18.0977444 0.619497608,18.6555675 0.619497608,19.1204201 L0.619497608,19.3063611 C0.526315789,19.8641843 0.526315789,20.4220074 0.526315789,20.9798305 L0.526315789,22.0954768 C0.99222488,30.4628237 6.48995215,37.5285834 14.1308612,40.317699 L14.783134,40.5036401 C15.2490431,40.6895811 15.7149522,40.7825516 16.1808612,40.8755221 C16.2740431,40.8755221 16.3672249,40.8755221 16.4604067,40.9684927 C17.3922249,41.1544337 18.3240431,41.3403747 19.2558612,41.4333453 L19.5354067,41.4333453 C20.0013158,41.4333453 20.4672249,41.5263158 20.933134,41.5263158 C21.5854067,41.5263158 22.2376794,41.5263158 22.8899522,41.4333453 L23.0763158,41.4333453 L24.7535885,41.1544337 C24.9399522,41.1544337 25.1263158,41.0614632 25.3126794,41.0614632 L26.4308612,40.7825516 C26.8035885,40.6895811 27.2694976,40.5036401 27.6422249,40.4106695 C27.8285885,40.317699 27.9217703,40.317699 28.108134,40.2247285 C28.4808612,40.131758 28.8535885,39.9458169 29.133134,39.8528464 L29.4126794,39.7598759 C33.6058612,37.8074949 36.9604067,34.6464972 39.0104067,30.7417353 Z M19.3490431,39.4809643 L18.883134,39.4809643 C18.3240431,39.3879938 17.7649522,39.3879938 17.2990431,39.2020528 L17.2058612,39.2020528 C16.833134,39.1090822 16.4604067,39.0161117 16.1808612,38.9231412 C16.6467703,32.5081752 20.2808612,27.115885 25.4058612,24.1408283 C27.083134,27.5807376 28.0149522,31.3925289 28.0149522,35.3902614 C28.0149522,36.3199666 27.9217703,37.3426423 27.8285885,38.2723475 L26.9899522,38.5512591 C26.8035885,38.6442296 26.6172249,38.6442296 26.4308612,38.7372001 C26.058134,38.8301707 25.5922249,38.9231412 25.2194976,39.0161117 C25.033134,39.0161117 24.8467703,39.1090822 24.6604067,39.1090822 C24.1944976,39.2020528 23.8217703,39.2950233 23.3558612,39.2950233 C23.1694976,39.2950233 22.983134,39.3879938 22.8899522,39.3879938 C22.2376794,39.5739348 21.6785885,39.5739348 21.0263158,39.5739348 C20.4672249,39.5739348 19.908134,39.5739348 19.3490431,39.4809643 Z M39.383134,23.9548872 L39.383134,24.1408283 L39.1035885,25.5353861 C39.1035885,25.7213271 39.0104067,25.8142976 39.0104067,26.0002387 C38.9172249,26.3721208 38.8240431,26.6510323 38.7308612,27.0229144 L38.4513158,27.8596491 C38.358134,28.0455902 38.2649522,28.2315312 38.1717703,28.5104428 C37.9854067,28.8823249 37.7990431,29.3471775 37.6126794,29.7190596 C37.6126794,29.8120301 37.5194976,29.9050006 37.5194976,29.9979711 C35.7490431,33.1589689 33.1399522,35.7621435 29.8785885,37.4356128 C29.9717703,36.7848192 29.9717703,36.041055 29.9717703,35.3902614 C29.9717703,31.1136174 28.9467703,26.9299439 27.1763158,23.3040936 C29.5058612,22.2814178 32.1149522,21.6306242 34.8172249,21.6306242 C36.4944976,21.6306242 38.1717703,21.8165652 39.7558612,22.2814178 C39.5694976,22.839241 39.4763158,23.3970641 39.383134,23.9548872 L39.383134,23.9548872 Z M39.6626794,20.4220074 C38.0785885,20.0501253 36.4013158,19.7712137 34.7240431,19.7712137 C31.6490431,19.7712137 28.7604067,20.4220074 26.1513158,21.6306242 C24.8467703,19.3993317 23.2626794,17.2610097 21.3990431,15.4015992 C24.1944976,12.0546605 25.9649522,7.77801647 26.2444976,3.12949039 C33.7922249,5.26781239 39.383134,12.147631 39.6626794,20.4220074 Z M22.7035885,2.47869674 C23.0763158,2.47869674 23.4490431,2.57166726 23.7285885,2.66463778 C23.9149522,2.66463778 24.1013158,2.75760831 24.1944976,2.75760831 C24.1013158,7.12722282 22.5172249,11.1249552 19.8149522,14.285953 C16.3672249,11.3108963 12.1740431,9.17257429 7.51495215,8.24286908 L7.79449761,7.96395751 C8.07404306,7.68504595 8.2604067,7.49910491 8.53995215,7.31316386 L9.09904306,6.75534073 L9.93767943,6.1975176 C10.1240431,6.01157656 10.3104067,5.91860604 10.5899522,5.732665 L11.4285885,5.17484187 C11.6149522,5.08187135 11.8944976,4.8959303 12.0808612,4.80295978 C12.3604067,4.61701874 12.733134,4.52404822 13.0126794,4.33810717 C13.1990431,4.24513665 13.4785885,4.15216613 13.6649522,4.05919561 C14.0376794,3.96622509 14.3172249,3.78028404 14.6899522,3.68731352 C14.9694976,3.594343 15.1558612,3.50137248 15.3422249,3.40840196 L16.4604067,3.12949039 C16.6467703,3.03651987 16.9263158,3.03651987 17.1126794,2.94354935 C17.4854067,2.85057883 17.9513158,2.85057883 18.3240431,2.75760831 C18.5104067,2.75760831 18.6967703,2.66463778 18.883134,2.66463778 C19.7217703,2.38572622 20.3740431,2.38572622 21.0263158,2.38572622 C21.5854067,2.38572622 22.1444976,2.38572622 22.7035885,2.47869674 L22.7035885,2.47869674 Z M2.48313397,19.7712137 C2.48313397,19.4923022 2.48313397,19.2133906 2.57631579,18.9344791 L2.57631579,18.748538 C2.57631579,18.4696264 2.66949761,18.1907149 2.66949761,17.9118033 C2.66949761,17.6328918 2.76267943,17.3539802 2.76267943,17.0750686 L2.76267943,16.9820981 C2.85586124,16.7031865 2.94904306,16.3313045 3.04222488,16.0523929 C3.1354067,15.7734813 3.22858852,15.4945698 3.22858852,15.2156582 C3.32177033,14.9367466 3.41495215,14.5648645 3.60131579,14.285953 C3.69449761,14.0070414 3.78767943,13.7281298 3.88086124,13.5421888 C3.97404306,13.2632772 4.1604067,12.9843657 4.34677033,12.7054541 C4.43995215,12.4265425 4.62631579,12.2406015 4.71949761,11.9616899 C4.90586124,11.6827784 5.09222488,11.4968373 5.1854067,11.2179258 C5.27858852,11.0319847 5.37177033,10.8460437 5.55813397,10.6601026 C5.65131579,10.5671321 5.74449761,10.4741616 5.74449761,10.3811911 C5.93086124,10.19525 6.02404306,10.009309 6.2104067,9.82336794 C10.9626794,10.6601026 15.2490431,12.7054541 18.6967703,15.6805108 C15.3422249,18.9344791 10.7763158,20.9798305 5.65131579,20.9798305 C4.53313397,20.9798305 3.50813397,20.88686 2.38995215,20.700919 C2.38995215,20.3290369 2.38995215,20.0501253 2.48313397,19.7712137 L2.48313397,19.7712137 Z M2.48313397,22.4673589 C3.60131579,22.6532999 4.62631579,22.7462704 5.65131579,22.7462704 C11.2422249,22.7462704 16.3672249,20.5149779 20.0944976,16.7961571 C21.7717703,18.4696264 23.2626794,20.4220074 24.4740431,22.4673589 C18.883134,25.6283566 14.9694976,31.4854995 14.3172249,38.2723475 C7.79449761,35.7621435 3.04222488,29.7190596 2.48313397,22.4673589 Z" id="形状"></path>
                    </g>
                </g>
            </g>
        </g>
    </g>
</svg>